<svg width="32" height="32" xmlns="http://www.w3.org/2000/svg"><g fill="#0092D2" fill-rule="evenodd"><path d="M19 30a1 1 0 010 2h-6a1 1 0 010-2 1 1 0 010-2h6a1 1 0 010 2zM7 16.708C7 11.898 11.03 8 16 8s9 3.899 9 8.708c0 3.693-2.455 5.542-3.273 7.125C20.91 25.417 20.177 27 19.273 27h-6.546c-.903 0-1.636-1.583-2.454-3.167C9.455 22.25 7 20.401 7 16.708zM6.732 3.563l3.111 3.982a.961.961 0 01-1.515 1.183l-3.11-3.982a.961.961 0 011.514-1.183zm20.05 1.183l-3.11 3.982a.961.961 0 11-1.515-1.183l3.111-3.982a.961.961 0 111.515 1.183zM13.386.593l1.308 4.88a.961.961 0 11-1.857.498L11.528 1.09a.961.961 0 111.857-.497zm7.287.497l-1.308 4.881a.961.961 0 01-1.857-.497L18.815.593a.961.961 0 011.857.497z"/></g></svg>