<?xml version="1.0" encoding="UTF-8"?>
<svg width="24px" height="24px" viewBox="0 0 24 24" version="1.1" xmlns="http://www.w3.org/2000/svg" xmlns:xlink="http://www.w3.org/1999/xlink">
    <title>Icons/24/icon-cart-full-blue-24</title>
    <g id="Icons/24/icon-cart-full-blue-24" stroke="none" stroke-width="1" fill="none" fill-rule="evenodd">
        <path d="M15,1 L15.3655639,3.18875696 C15.7427311,3.29559803 16.1017655,3.44559398 16.4369942,3.63307186 L18.2426407,2.34314575 L19.6568542,3.75735931 L18.3669281,5.56300579 C18.5545716,5.89853054 18.7046669,6.2579031 18.811526,6.63543546 L21,7 L20.9991721,7.65548132 C20.0064657,7.94804266 19.1619244,8.63689233 18.6886946,9.58021463 L18.643,9.677 L17,13 L11,13 L8.086,6.819 L9.18847397,6.63543546 C9.2953331,6.2579031 9.44542839,5.89853054 9.63307186,5.56300579 L8.34314575,3.75735931 L9.75735931,2.34314575 L11.5630058,3.63307186 C11.8985305,3.44542839 12.2579031,3.2953331 12.6354355,3.18847397 L13,1 L15,1 Z M14,6 C12.8954305,6 12,6.8954305 12,8 C12,9.1045695 12.8954305,10 14,10 C15.1045695,10 16,9.1045695 16,8 C16,6.8954305 15.1045695,6 14,6 Z" id="Shape" fill="#0092D2" fill-rule="nonzero"></path>
        <path d="M3.39238936,5 C4.51067311,5 5.39593402,5.8418255 5.91266528,6.8251465 L10,15 L18,15 L19.9775514,11.3636816 C20.3152175,10.5880985 21.0626199,10.0681854 21.9081211,10.0062259 L22.0784369,10 L23.2379028,10 C23.3384932,10 23.438088,10.0196079 23.5309407,10.0576923 C23.8869894,10.2037291 24.0709995,10.5848693 23.974537,10.9418862 L23.9411937,11.0384615 L20,19 L8,19 L3,9 L2,9 C0.94803776,9 0,8.375 0,7 C0,5.68478261 0.867391826,5.0557656 1.86344627,5.0035547 L2,5 L3.39238936,5 Z" id="Path" fill="#0092D2" fill-rule="nonzero"></path>
        <circle id="Oval" fill="#0092D2" fill-rule="nonzero" cx="10.5" cy="21.5" r="2.5"></circle>
        <circle id="Oval-Copy" fill="#0092D2" fill-rule="nonzero" cx="17.5" cy="21.5" r="2.5"></circle>
    </g>
</svg>