<?xml version="1.0" encoding="UTF-8"?>
<svg width="32px" height="32px" viewBox="0 0 32 32" version="1.1" xmlns="http://www.w3.org/2000/svg" xmlns:xlink="http://www.w3.org/1999/xlink">
    <title>Icons/32/icon-invoice-round-32</title>
    <g id="Icons/32/icon-invoice-round-32" stroke="none" stroke-width="1" fill="none" fill-rule="evenodd">
        <circle id="Oval" fill="#0092D2" fill-rule="nonzero" cx="16" cy="16" r="16"></circle>
        <path d="M13,12 L19,12 L19,13 L13,13 L13,12 Z M13,14 L19,14 L19,15 L13,15 L13,14 Z M13,16 L19,16 L19,17 L13,17 L13,16 Z" id="lines" fill="#FFFFFF" fill-rule="nonzero"></path>
        <path d="M21,9 L11,9 L11,21.5 L13,20.5 L16,22.5 L19,20.5 L21,21.5 L21,9 Z M9,7 L23,7 L23,25 L19,23 L16,25 L13,23 L9,25 L9,7 Z" id="invoice" fill="#FFFFFF" fill-rule="nonzero"></path>
    </g>
</svg>