<?xml version="1.0" encoding="UTF-8"?>
<svg width="48px" height="48px" viewBox="0 0 48 48" version="1.1" xmlns="http://www.w3.org/2000/svg" xmlns:xlink="http://www.w3.org/1999/xlink">
    <title>Icons/48/icon-check-round-48</title>
    <g id="Icons/48/icon-check-round-48" stroke="none" stroke-width="1" fill="none" fill-rule="evenodd">
        <path d="M24,48 C10.745166,48 0,37.254834 0,24 C0,10.745166 10.745166,0 24,0 C37.254834,0 48,10.745166 48,24 C48,37.254834 37.254834,48 24,48 Z" id="Path" fill="#0092D2" fill-rule="nonzero"></path>
        <path d="M24,46 C36.1502645,46 46,36.1502645 46,24 C46,11.8497355 36.1502645,2 24,2 C11.8497355,2 2,11.8497355 2,24 C2,36.1502645 11.8497355,46 24,46 Z" id="circle" fill="#FFFFFF" fill-rule="nonzero"></path>
        <path d="M20.7631508,27.6382648 L15.9145996,22.9375601 C15.0191083,22.0693749 13.5645916,22.0642597 12.6707272,22.9308676 C11.7706309,23.8035173 11.7799533,25.2055209 12.6776302,26.0758249 L19.1377631,32.3389696 L19.141219,32.3423131 L19.1446661,32.3456621 C20.0447624,33.2183118 21.4844361,33.2155033 22.3741866,32.3528839 L35.3369623,19.7853809 C36.2211266,18.9281774 36.2233778,17.5209458 35.3295133,16.6543379 C34.429417,15.7816882 32.9897433,15.7844967 32.0999928,16.6471161 L20.7631508,27.6382648 Z" id="icon" fill="#0092D2" fill-rule="nonzero"></path>
    </g>
</svg>