<?xml version="1.0" encoding="UTF-8"?>
<svg width="48px" height="48px" viewBox="0 0 48 48" version="1.1" xmlns="http://www.w3.org/2000/svg" xmlns:xlink="http://www.w3.org/1999/xlink">
    <title>Icons/48/icon-verzending-blue-48</title>
    <g id="Icons/48/icon-verzending-blue-48" stroke="none" stroke-width="1" fill="none" fill-rule="evenodd">
        <path d="M12,35 L8,35 C7,35 6,34 6,33 L6,28 L48,28 L48,33 C48,34 47,35 46,35 L44,35 C43.9978314,32.238682 41.7576976,30 39.0040592,30 C36.2423064,30 34.0021686,32.238682 34,35 L22,35 C21.9977397,32.238682 19.7639427,30 17,30 C14.2360573,30 12.0021625,32.238682 12,35 L12,35 Z M39.0032474,31 C41.2072244,31 43,32.7926798 43,35.0032082 C43,37.2071637 41.2072244,39 39.0032474,39 C36.7928539,39 35,37.2071637 35,35.0032082 C35,32.7926798 36.7927756,31 39.0032474,31 Z M17,31 C19.2122244,31 21,32.7926798 21,35.0032082 C21,37.2071637 19.2122244,39 17,39 C14.7877756,39 13,37.2071637 13,35.0032082 C13,32.7926798 14.7877756,31 17,31 Z M39,37 C40.0996515,37 41,36.0996085 41,34.9999217 C41,33.8939702 40.0996515,33 39,33 C37.8938486,33 37,33.8939702 37,34.9999217 C37,36.0996085 37.8938486,37 39,37 Z M17.0000392,37 C18.1060906,37 18.9999217,36.0996085 19,34.9999217 C19,33.8939702 18.1060906,33 17.0000392,33 C15.8939094,33 15,33.8939702 15,34.9999217 C15,36.0996085 15.8939094,37 17.0000392,37 Z M47.1925463,23.5129926 C47.7057669,24.0329287 48,24.739937 48,25.4817259 L48,27 L6,27 L6,23 L0,20 L12,20 L0,16 L12,16 L0,13 L6,13 C6,11.8493703 6.87089802,11 8,11 L31,11 C32.1358516,11 33,11.9289457 33,13.0796598 L33,15 L37,15 C38,15 38.6117045,14.9167841 39.1249251,15.4297978 L47.1925463,23.5129926 Z M43.6967003,24 C43.9687281,24 44.104821,23.626683 43.9041136,23.4185172 L37.9242342,17.093373 C37.8659313,17.0359329 37.7881414,17 37.7104304,17 L36.3045324,17 C36.1360928,17 36,17.1508131 36,17.3374716 L36,23.6626158 C36,23.8492743 36.1360928,24 36.3045324,24 L43.6967003,24 Z" id="icon" fill="#0092D2" fill-rule="nonzero"></path>
    </g>
</svg>