<?xml version="1.0" encoding="UTF-8"?>
<svg width="24px" height="24px" viewBox="0 0 24 24" version="1.1" xmlns="http://www.w3.org/2000/svg" xmlns:xlink="http://www.w3.org/1999/xlink">
    <title>Icons/24/icon-plus-round-blue-24</title>
    <g id="Icons/24/icon-plus-round-blue-24" stroke="none" stroke-width="1" fill="none" fill-rule="evenodd">
        <circle id="circle" fill="#0092D2" fill-rule="nonzero" cx="12" cy="12" r="12"></circle>
        <path d="M12.4603729,6 C12.970818,6 13.3846154,6.41379743 13.3846154,6.92424244 L13.384,10.615 L17.0757576,10.6153846 C17.5862026,10.6153846 18,11.029182 18,11.5396271 L18,12.4603729 C18,12.970818 17.5862026,13.3846154 17.0757576,13.3846154 L13.384,13.384 L13.3846154,17.0757576 C13.3846154,17.5862026 12.970818,18 12.4603729,18 L11.5396271,18 C11.029182,18 10.6153846,17.5862026 10.6153846,17.0757576 L10.615,13.384 L6.92424244,13.3846154 C6.41379743,13.3846154 6,12.970818 6,12.4603729 L6,11.5396271 C6,11.029182 6.41379743,10.6153846 6.92424244,10.6153846 L10.615,10.615 L10.6153846,6.92424244 C10.6153846,6.41379743 11.029182,6 11.5396271,6 L12.4603729,6 Z" id="Path" fill="#FFFFFF" fill-rule="nonzero"></path>
    </g>
</svg>