<?xml version="1.0" encoding="UTF-8"?>
<svg width="16px" height="16px" viewBox="0 0 16 16" version="1.1" xmlns="http://www.w3.org/2000/svg" xmlns:xlink="http://www.w3.org/1999/xlink">
    <title>Icons/16/icon-plus-darkgrey-16</title>
    <g id="Icons/16/icon-plus-darkgrey-16" stroke="none" stroke-width="1" fill="none" fill-rule="evenodd">
        <path d="M6,6 L6,1 C6,0.44771525 6.44771525,0 7,0 L8,0 C8.55228475,0 9,0.44771525 9,1 L9,6 L14,6 C14.5522847,6 15,6.44771525 15,7 L15,8 C15,8.55228475 14.5522847,9 14,9 L9,9 L9,14 C9,14.5522847 8.55228475,15 8,15 L7,15 C6.44771525,15 6,14.5522847 6,14 L6,9 L1,9 C0.44771525,9 0,8.55228475 0,8 L0,7 C0,6.44771525 0.44771525,6 1,6 L6,6 Z" id="Combined-Shape" fill="#003247" fill-rule="nonzero"></path>
    </g>
</svg>