<svg width="24" height="24" viewBox="0 0 24 24" xmlns="http://www.w3.org/2000/svg">
  <g fill="none" fill-rule="nonzero">
    <path d="M12 24C5.373 24 0 18.627 0 12S5.373 0 12 0s12 5.373 12 12-5.373 12-12 12z" fill="#0092D2"/>
    <path d="M12 23c6.075 0 11-4.925 11-11S18.075 1 12 1 1 5.925 1 12s4.925 11 11 11z" fill="#FFF"/>
    <path d="M10.382 13.82l-2.425-2.351a1.174 1.174 0 0 0-1.622-.004 1.085 1.085 0 0 0 .004 1.573l3.23 3.131.002.002.001.002c.45.436 1.17.435 1.615.003l6.481-6.283a1.086 1.086 0 0 0-.003-1.566 1.164 1.164 0 0 0-1.615-.003l-5.668 5.495z" fill="#0092D2"/>
  </g>
</svg>
