<?xml version="1.0" encoding="UTF-8"?>
<svg width="40px" height="40px" viewBox="0 0 40 40" version="1.1" xmlns="http://www.w3.org/2000/svg" xmlns:xlink="http://www.w3.org/1999/xlink">
    <title>Icons/40/icon-twitter-round-40</title>
    <g id="Icons/40/icon-twitter-round-40" stroke="none" stroke-width="1" fill="none" fill-rule="evenodd">
        <path d="M20,40 C8.954305,40 0,31.045695 0,20 C0,8.954305 8.954305,0 20,0 C31.045695,0 40,8.954305 40,20 C40,31.045695 31.045695,40 20,40 Z" id="circle" fill="#0092D2" fill-rule="nonzero"></path>
        <path d="M20,38 C29.9411255,38 38,29.9411255 38,20 C38,10.0588745 29.9411255,2 20,2 C10.0588745,2 2,10.0588745 2,20 C2,29.9411255 10.0588745,38 20,38 Z" id="Path" fill="#FFFFFF" fill-rule="nonzero"></path>
        <path d="M30,13.9036028 C29.2640639,14.2382259 28.4733624,14.464419 27.643364,14.5661197 C28.4904717,14.0453991 29.1410954,13.2208579 29.4475011,12.238298 C28.6545729,12.7205254 27.7765278,13.07065 26.8418421,13.2593111 C26.0934061,12.4415794 25.0269628,11.9306723 23.8467698,11.9306723 C21.5807196,11.9306723 19.7435747,13.8144394 19.7435747,16.1380553 C19.7435747,16.4678317 19.7798637,16.7889561 19.8498245,17.0969424 C16.4396749,16.9214195 13.4162043,15.2463812 11.3924582,12.700738 C11.0392558,13.3221581 10.8368734,14.0449184 10.8368734,14.8160256 C10.8368734,16.2758059 11.561247,17.5636683 12.6622604,18.3181926 C11.9896446,18.2963223 11.3569505,18.1070604 10.8037875,17.7919042 C10.8033969,17.8094485 10.8033969,17.8270729 10.8033969,17.8448174 C10.8033969,19.8833988 12.2178082,21.5839124 14.0948358,21.9705274 C13.7505786,22.0666204 13.3880403,22.1182118 13.0138222,22.1182118 C12.7494087,22.1182118 12.4923779,22.0917752 12.2417925,22.0425872 C12.763979,23.7141005 14.2792885,24.9307444 16.0748319,24.9645912 C14.6705378,26.0931932 12.9012834,26.765764 10.9788262,26.765764 C10.6476159,26.765764 10.321015,26.7458965 10,26.7068425 C11.8158558,27.9007749 13.9726876,28.5973389 16.2898705,28.5973389 C23.8371605,28.5973389 27.964379,22.1859856 27.964379,16.6258905 C27.964379,16.443478 27.9603165,16.2620269 27.9524649,16.0815371 C28.7542602,15.4883561 29.4499229,14.7473305 30,13.9036028 Z" id="icon" fill="#0092D2" fill-rule="nonzero"></path>
    </g>
</svg>