<svg width="20" height="20" viewBox="0 0 20 20" xmlns="http://www.w3.org/2000/svg">
  <path d="M3.824 12.424a6.033 6.033 0 0 1-1.789-4.305c0-1.627.635-3.155 1.789-4.305A6.07 6.07 0 0 1 8.14 2.03c1.631 0 3.163.633 4.316 1.785a6.032 6.032 0 0 1 1.789 4.304 6.037 6.037 0 0 1-1.789 4.306 6.071 6.071 0 0 1-4.316 1.783 6.07 6.07 0 0 1-4.316-1.784zM20 18.565l-5.457-5.443A8.035 8.035 0 0 0 16.28 8.12a8.048 8.048 0 0 0-2.385-5.74A8.094 8.094 0 0 0 8.14 0a8.096 8.096 0 0 0-5.755 2.379A8.052 8.052 0 0 0 0 8.119c0 2.17.848 4.208 2.385 5.741a8.095 8.095 0 0 0 5.755 2.378c1.818 0 3.54-.598 4.957-1.688L18.561 20 20 18.565z" fill="#FFF" fill-rule="nonzero"/>
</svg>
