<svg width="112" height="95" viewBox="0 0 112 95" xmlns="http://www.w3.org/2000/svg">
  <g fill="#0092D2" fill-rule="nonzero">
    <path d="M92.748 32.167l-5.096.667a2.466 2.466 0 0 0-2.017 1.652c-.29.857-.625 1.72-.625 1.72l-.052.13c-.073.163-.417.93-.78 1.666a2.473 2.473 0 0 0 .257 2.597l3.132 4.075a32.349 32.349 0 0 1-2.767 3.124 32.646 32.646 0 0 1-3.127 2.77L77.6 47.435a2.473 2.473 0 0 0-2.598-.258c-.805.398-1.644.772-1.644.772s.003 0 .004-.002l-.11.047s-.89.343-1.768.642a2.468 2.468 0 0 0-1.65 2.015l-.666 5.097A32.53 32.53 0 0 1 65 56c-1.77 0-3.183-.124-4.168-.251l-.666-5.097a2.467 2.467 0 0 0-1.652-2.015c-.856-.292-1.72-.625-1.72-.625l-.132-.053c-.162-.073-.928-.416-1.664-.78a2.477 2.477 0 0 0-2.598.257l-4.075 3.133A32.47 32.47 0 0 1 45.2 47.8a32.844 32.844 0 0 1-2.769-3.124l3.133-4.076a2.468 2.468 0 0 0 .256-2.598 49.74 49.74 0 0 1-.782-1.67l-.034-.082a48.592 48.592 0 0 1-.639-1.76 2.466 2.466 0 0 0-2.017-1.655l-5.098-.667a33.083 33.083 0 0 1-.25-4.165c0-1.771.125-3.185.252-4.17l5.098-.666a2.469 2.469 0 0 0 2.017-1.654 48.285 48.285 0 0 1 .658-1.814h.001s.387-.868.796-1.699a2.47 2.47 0 0 0-.256-2.598l-3.133-4.075A32.663 32.663 0 0 1 45.2 8.201a32.7 32.7 0 0 1 3.127-2.769l4.075 3.132c.747.574 1.752.671 2.597.257a48.887 48.887 0 0 1 1.672-.782l.079-.033c.014-.006.896-.345 1.766-.642a2.47 2.47 0 0 0 1.651-2.015l.665-5.098C61.818.125 63.232 0 65.001 0c1.769 0 3.182.125 4.167.251l.665 5.098c.122.93.762 1.713 1.652 2.015.86.293 1.728.628 1.728.628l.126.05c.172.077.933.42 1.665.78a2.47 2.47 0 0 0 2.595-.258l4.075-3.132A32.473 32.473 0 0 1 84.799 8.2a32.838 32.838 0 0 1 2.769 3.127l-3.132 4.076a2.47 2.47 0 0 0-.257 2.596c.397.805.77 1.645.77 1.645v-.002l.045.107c.007.015.345.896.642 1.766a2.47 2.47 0 0 0 2.016 1.652l5.096.667c.129.984.252 2.398.252 4.167 0 1.77-.124 3.182-.252 4.167zM65.001 11C55.626 11 48 18.626 48 28c0 9.373 7.626 17 17 17 9.374 0 17-7.627 17-17 0-9.374-7.626-17-17-17zM65 38c-3.866 0-7-4.477-7-10s3.134-10 7-10 7 4.477 7 10-3.134 10-7 10zm0-3c2.21 0 4-3.134 4-7s-1.79-7-4-7-4 3.134-4 7 1.79 7 4 7z"/>
    <path d="M97.758 40.025A2.985 2.985 0 0 1 100.58 38h8.425c.836.226 1.117.792.944 1.316l-12.559 37.9c-.257 1.43-1.713 2.634-3.478 2.784h-7.956l1.273 1.366A8.99 8.99 0 0 1 88.505 86c0 4.97-4.008 9-8.951 9-4.944 0-8.951-4.03-8.951-9a8.99 8.99 0 0 1 1.276-4.634L73.027 80H54.13l1.273 1.366A8.99 8.99 0 0 1 56.679 86c0 4.97-4.008 9-8.951 9-4.944 0-8.951-4.03-8.951-9a8.99 8.99 0 0 1 1.276-4.634L41.2 80h-7.397c-1.99 0-2.76-2.433-2.984-3-1.051-2.658-8.013-20.325-20.885-53H2.984C.994 24 0 23 0 21v-5c0-2 .995-3 2.984-3h11.898c1.226 0 2.303.604 3.234 1.65a7.853 7.853 0 0 1 1.158 1.724L39.771 70h46.32a1.99 1.99 0 0 0 1.88-1.35l9.787-28.625z"/>
  </g>
</svg>
