<?xml version="1.0" encoding="UTF-8"?>
<svg width="20px" height="20px" viewBox="0 0 20 20" version="1.1" xmlns="http://www.w3.org/2000/svg" xmlns:xlink="http://www.w3.org/1999/xlink">
    <title>Icons/20/icon-home-blue-20</title>
    <g id="Icons/20/icon-home-blue-20" stroke="none" stroke-width="1" fill="none" fill-rule="evenodd">
        <path d="M17.0115284,13 L19.014823,13 C20.2660618,13 20.1032164,10.9405478 19.7299623,10.5652174 L10.675774,0.281617942 C10.4965547,0.101401682 10.2532943,0 10,0 C9.74670096,0 9.50344058,0.101401682 9.32422124,0.281617942 L0.270201703,10.5652174 C-0.103291405,10.9405478 -0.266066512,13 0.985172301,13 L2.99334094,13 L2.99334094,18 C2.99334094,18.530797 3.4671275,19 3.9949882,19 L6.99992998,19 C7.52779068,19 7.99670311,18.530797 7.99670311,18 L7.99670311,15 L12.0081595,15 L12.0081595,18 C12.0081595,18.530797 12.4770787,19 13.0049394,19 L16.0098812,19 C16.5377419,19 17.0115284,18.530797 17.0115284,18 L17.0115284,13 Z" id="icon" fill="#0092D2" fill-rule="nonzero"></path>
    </g>
</svg>