<?xml version="1.0" encoding="UTF-8"?>
<svg width="40px" height="40px" viewBox="0 0 40 40" version="1.1" xmlns="http://www.w3.org/2000/svg" xmlns:xlink="http://www.w3.org/1999/xlink">
    <title>Icons/40/icon-linkedin-round-40</title>
    <g id="Icons/40/icon-linkedin-round-40" stroke="none" stroke-width="1" fill="none" fill-rule="evenodd">
        <path d="M20,40 C8.954305,40 0,31.045695 0,20 C0,8.954305 8.954305,0 20,0 C31.045695,0 40,8.954305 40,20 C40,31.045695 31.045695,40 20,40 Z" id="circle" fill="#0092D2" fill-rule="nonzero"></path>
        <path d="M20,38 C29.9411255,38 38,29.9411255 38,20 C38,10.0588745 29.9411255,2 20,2 C10.0588745,2 2,10.0588745 2,20 C2,29.9411255 10.0588745,38 20,38 Z" id="Path" fill="#FFFFFF" fill-rule="nonzero"></path>
        <path d="M29,20.4648314 L29,27.1124905 L25.1420172,27.1124905 L25.1420172,20.9100515 C25.1420172,19.3519483 24.5840016,18.2886037 23.1875397,18.2886037 C22.1215181,18.2886037 21.4871279,19.00522 21.2080364,19.6984257 C21.1062595,19.946244 21.0800619,20.2911746 21.0800619,20.6380701 L21.0800619,27.1124905 L17.2207818,27.1124905 C17.2207818,27.1124905 17.2727583,16.6075947 17.2207818,15.5192091 L21.0796853,15.5192091 L21.0796853,17.1625103 C21.0718595,17.1748009 21.0616902,17.188053 21.0543248,17.1999674 L21.0796853,17.1999674 L21.0796853,17.1625103 C21.5923784,16.3736973 22.5079943,15.2468514 24.5574274,15.2468514 C27.0965365,15.2468514 29,16.9038228 29,20.4648314 Z M13.1838105,9.93067227 C11.8635557,9.93067227 11,10.7957371 11,11.9333268 C11,13.0461263 11.8385718,13.9374444 13.1325872,13.9374444 L13.1583662,13.9374444 C14.5041907,13.9374444 15.3411723,13.0462935 15.3411723,11.9333268 C15.3158117,10.7957371 14.5041907,9.93067227 13.1838105,9.93067227 Z M11.2292074,27.1124905 L15.0870228,27.1124905 L15.0870228,15.5192091 L11.2292074,15.5192091 L11.2292074,27.1124905 Z" id="icon" fill="#0092D2" fill-rule="nonzero"></path>
    </g>
</svg>