<?xml version="1.0" encoding="UTF-8"?>
<svg width="40px" height="40px" viewBox="0 0 40 40" version="1.1" xmlns="http://www.w3.org/2000/svg" xmlns:xlink="http://www.w3.org/1999/xlink">
    <title>Icons/40/icon-facebook-round-40</title>
    <g id="Icons/40/icon-facebook-round-40" stroke="none" stroke-width="1" fill="none" fill-rule="evenodd">
        <path d="M20,40 C8.954305,40 0,31.045695 0,20 C0,8.954305 8.954305,0 20,0 C31.045695,0 40,8.954305 40,20 C40,31.045695 31.045695,40 20,40 Z" id="circle" fill="#0092D2" fill-rule="nonzero"></path>
        <path d="M20,38 C29.9411255,38 38,29.9411255 38,20 C38,10.0588745 29.9411255,2 20,2 C10.0588745,2 2,10.0588745 2,20 C2,29.9411255 10.0588745,38 20,38 Z" id="Path" fill="#FFFFFF" fill-rule="nonzero"></path>
        <path d="M24.4253818,9.9348336 L21.8269577,9.93067227 C18.9077174,9.93067227 17.0211761,11.862572 17.0211761,14.8526993 L17.0211761,17.1220833 L14.4085769,17.1220833 C14.1828173,17.1220833 14,17.3047659 14,17.5301022 L14,20.818181 C14,21.0435173 14.1830258,21.2259918 14.4085769,21.2259918 L17.0211761,21.2259918 L17.0211761,29.5228614 C17.0211761,29.7481977 17.2039934,29.9306723 17.429753,29.9306723 L20.8384518,29.9306723 C21.0642114,29.9306723 21.2470287,29.7479897 21.2470287,29.5228614 L21.2470287,21.2259918 L24.3017664,21.2259918 C24.527526,21.2259918 24.7103433,21.0435173 24.7103433,20.818181 L24.7115941,17.5301022 C24.7115941,17.4219075 24.6684434,17.3182902 24.5919394,17.2417217 C24.5154355,17.1651531 24.4112067,17.1220833 24.3028087,17.1220833 L21.2470287,17.1220833 L21.2470287,15.1982981 C21.2470287,14.2736495 21.4677853,13.8042509 22.6745464,13.8042509 L24.4249649,13.8036267 C24.650516,13.8036267 24.8333333,13.6209441 24.8333333,13.3958159 L24.8333333,10.3426444 C24.8333333,10.1177243 24.6507245,9.93524974 24.4253818,9.9348336 Z" id="icon" fill="#0092D2" fill-rule="nonzero"></path>
    </g>
</svg>