<?xml version="1.0" encoding="UTF-8"?>
<svg width="24px" height="24px" viewBox="0 0 24 24" version="1.1" xmlns="http://www.w3.org/2000/svg" xmlns:xlink="http://www.w3.org/1999/xlink">
    <title>Icons/24/icon-search-blue-24</title>
    <g id="Icons/24/icon-search-blue-24" stroke="none" stroke-width="1" fill="none" fill-rule="evenodd">
        <path d="M18.2851661,16.2886176 L23,21.0044706 L21.0048449,23 L16.289649,18.2837851 C14.7622248,19.3982914 12.9278798,20 11,20 C8.597,20 6.3365,19.064 4.637,17.363 C2.936,15.6665 2,13.4045 2,11 C2,8.5955 2.936,6.3365 4.637,4.637 C6.3365,2.936 8.597,2 11,2 C13.4045,2 15.6635,2.936 17.363,4.6385 C19.064,6.3365 20,8.5955 20,11 C20,12.9266382 19.3990662,14.7617881 18.2851661,16.2886176 L18.2851661,16.2886176 Z M6.758,15.242 C7.891,16.376 9.398,17 11,17 C12.603,17 14.109,16.376 15.242,15.243 C16.376,14.111 17,12.603 17,11 C17,9.397 16.376,7.891 15.242,6.759 C14.109,5.624 12.603,5 11,5 C9.398,5 7.891,5.624 6.758,6.758 C5.624,7.891 5,9.397 5,11 C5,12.603 5.624,14.111 6.758,15.242 Z" id="icon" fill="#0092D2" fill-rule="nonzero"></path>
    </g>
</svg>