<?xml version="1.0" encoding="UTF-8"?>
<svg width="40px" height="40px" viewBox="0 0 40 40" version="1.1" xmlns="http://www.w3.org/2000/svg" xmlns:xlink="http://www.w3.org/1999/xlink">
    <title>Icons/40/icon-youtube-round-40</title>
    <g id="Icons/40/icon-youtube-round-40" stroke="none" stroke-width="1" fill="none" fill-rule="evenodd">
        <path d="M20,40 C8.954305,40 0,31.045695 0,20 C0,8.954305 8.954305,0 20,0 C31.045695,0 40,8.954305 40,20 C40,31.045695 31.045695,40 20,40 Z" id="circle" fill="#0092D2" fill-rule="nonzero"></path>
        <path d="M20,38 C29.9411255,38 38,29.9411255 38,20 C38,10.0588745 29.9411255,2 20,2 C10.0588745,2 2,10.0588745 2,20 C2,29.9411255 10.0588745,38 20,38 Z" id="Path" fill="#FFFFFF" fill-rule="nonzero"></path>
        <path d="M29.6543992,15.2788778 C29.4095476,14.1979566 28.5395606,13.4004835 27.4922316,13.2815234 C25.0121285,13.0001734 22.5018834,12.9987047 20.0031996,13.0001734 C17.5041029,12.9987047 14.993445,13.0001734 12.5133418,13.2815234 C11.4666322,13.4004835 10.5972645,14.1979566 10.3524129,15.2788778 C10.0039226,16.8182254 10,18.4985627 10,20.0834383 C10,21.6683138 10,23.3484413 10.3484903,24.8875791 C10.592929,25.9682905 11.4625032,26.7657637 12.5098322,26.8849335 C14.9897288,27.1664934 17.5001804,27.167962 19.999277,27.1664934 C22.4987866,27.167962 25.0086188,27.1664934 27.488309,26.8849335 C28.5350186,26.7659735 29.4052122,25.9685003 29.6500638,24.8875791 C29.9987605,23.3482315 30,21.668104 30,20.0834383 C30,18.4985627 30.0028896,16.8182254 29.6543992,15.2788778 Z M17.4190449,23.2380833 C17.4190449,20.9898008 17.4190449,18.7650165 17.4190449,16.5165242 C19.5386835,17.6404556 21.6442834,18.7568341 23.7773414,19.8876891 C21.6508899,21.0084735 19.5442577,22.1181382 17.4190449,23.2380833 Z" id="icon" fill="#0092D2" fill-rule="nonzero"></path>
    </g>
</svg>