<?xml version="1.0" encoding="UTF-8"?>
<svg width="20px" height="20px" viewBox="0 0 20 20" version="1.1" xmlns="http://www.w3.org/2000/svg" xmlns:xlink="http://www.w3.org/1999/xlink">
    <title>Icons/20/icon-phone-blue-20</title>
    <g id="Icons/20/icon-phone-blue-20" stroke="none" stroke-width="1" fill="none" fill-rule="evenodd">
        <path d="M18.491504,3.29825004 C18.4778809,3.28483292 18.4638449,3.27182863 18.4496026,3.25944359 L16.3072667,1.39384418 C16.0395521,1.1397445 15.6779207,1 15.2849148,1 C14.8353525,1 14.3996197,1.17813812 14.0895909,1.48879613 C14.067505,1.5110892 14.0464511,1.53482718 14.0266357,1.55939084 L11.9226921,4.21536203 C11.3635257,4.81665558 11.3765296,5.76122107 11.9614973,6.34682691 C12.0003025,6.38563336 12.0430295,6.42031146 12.088027,6.45086122 L13.1479456,7.15598266 C13.0499006,7.53868031 12.4769046,8.61555928 10.5475845,10.5447352 C8.63374515,12.4586363 7.54575472,13.0399073 7.15770274,13.1435288 L6.4540489,12.0856402 C6.42391295,12.0398156 6.38902955,11.9975001 6.35022436,11.9591064 C6.06001101,11.669503 5.67422955,11.5091168 5.26388521,11.5091168 C4.87253066,11.5091168 4.50326205,11.6546409 4.21820897,11.9196807 L1.56252981,14.0234857 C1.53734772,14.0437146 1.51361049,14.0645627 1.49090532,14.0876815 C0.873531132,14.7056948 0.834106702,15.7123919 1.39740131,16.3046031 L3.26211493,18.4470081 C3.27491239,18.4614573 3.28770985,18.4759065 3.30112654,18.4889108 C3.64025921,18.8282608 4.15979476,19 4.84549087,19 C4.84569728,19 4.84569728,19 4.84569728,19 C7.03158584,19 10.9199493,17.3240981 14.1230294,14.1207082 C15.9569879,12.2862778 17.442938,10.0664664 18.3071793,7.86956721 C18.7109185,6.84367331 19.5369738,4.34396 18.491504,3.29825004 Z" id="icon" fill="#0092D2" fill-rule="nonzero"></path>
    </g>
</svg>