<?xml version="1.0" encoding="UTF-8" standalone="no"?>
<svg width="18px" height="17px" viewBox="0 0 18 17" version="1.1" xmlns="http://www.w3.org/2000/svg" xmlns:xlink="http://www.w3.org/1999/xlink">
    <!-- Generator: Sketch 44.1 (41455) - http://www.bohemiancoding.com/sketch -->
    <title>icon-cart-white-20</title>
    <desc>Created with Sketch.</desc>
    <defs></defs>
    <g id="Page-1" stroke="none" stroke-width="1" fill="none" fill-rule="evenodd">
        <g id="Home---not-logged-in---empty-cart" transform="translate(-301.000000, -1215.000000)">
            <g id="content" transform="translate(222.000000, 234.000000)">
                <g id="Group-12-Copy" transform="translate(0.000000, 508.000000)">
                    <g id="Group-14" transform="translate(16.000000, 72.000000)">
                        <g id="Button" transform="translate(24.000000, 389.000000)">
                            <g id="icon-cart-white-20" transform="translate(38.000000, 10.000000)">
                                <rect id="frame" x="0" y="0" width="20" height="20"></rect>
                                <path d="M10,7 L10,4.625 C10,4.27982203 10.2768555,4 10.6070948,4 L12.3929052,4 C12.7281944,4 13,4.2749362 13,4.625 L13,7 L14.325443,7 C15.0351249,7 15.2161621,7.43914714 14.718198,7.9937861 L12.3906969,10.5861877 C11.8979277,11.1350406 11.1041857,11.1408267 10.6062217,10.5861877 L8.27872055,7.9937861 C7.78595131,7.44493319 7.96477531,7 8.67147553,7 L10,7 Z M6.17605509,15 C5.71682739,14.9794331 5.55104874,14.5096503 5.55104874,14.5096503 L3.18991115,4.37037037 L1.6049745,4.37037037 C1.27085631,4.37037037 1,4.10764256 1,3.77222584 L1,2.59814453 C1,2.26779843 1.26413332,2 1.6049745,2 L4.31764128,2 C4.92084879,2 5.22245254,2.66402399 5.22245254,2.66402399 L7.53622067,12.6296296 L14.5553535,12.6296296 C14.8796672,12.6296296 15.1989322,12.3703891 15.2559916,12.0505998 L16.5712982,6.72782678 C16.6275963,6.41230372 16.9525735,6 17.2869619,6 L18.4997867,6 C18.8331604,6 19.0483939,6.4116331 18.9906457,6.72698452 L17.2131297,14.4211636 C17.1545884,14.7408461 16.8351104,15 16.4998111,15 C16.4998111,15 8.58888511,15 6.17605509,15 Z M9,19 C7.8954305,19 7,18.1045695 7,17 C7,15.8954305 7.8954305,15 9,15 C10.1045695,15 11,15.8954305 11,17 C11,18.1045695 10.1045695,19 9,19 Z M14,19 C12.8954305,19 12,18.1045695 12,17 C12,15.8954305 12.8954305,15 14,15 C15.1045695,15 16,15.8954305 16,17 C16,18.1045695 15.1045695,19 14,19 Z" id="icon" fill="#FFFFFF"></path>
                            </g>
                        </g>
                    </g>
                </g>
            </g>
        </g>
    </g>
</svg>