<svg width="20" height="20" viewBox="0 0 20 20" xmlns="http://www.w3.org/2000/svg">
  <path d="M10 1c-4.97 0-9 4.03-9 9s4.03 9 9 9 9-4.03 9-9-4.03-9-9-9zm.724 16.396c-.04 0-.078 0-.137.02V13.17c1.017-.02 1.937-.04 2.778-.098a11.218 11.218 0 0 1-2.641 4.324zm-1.448 0a11.309 11.309 0 0 1-2.641-4.324c.822.058 1.76.098 2.778.098v4.245c-.04 0-.078-.02-.137-.02zM2.566 10c0-.49.058-.978.136-1.448.43-.078 1.252-.195 2.407-.313a10.394 10.394 0 0 0-.157 1.78c0 .627.059 1.214.137 1.761a35.941 35.941 0 0 1-2.406-.313c-.06-.489-.118-.978-.118-1.467zm3.58 0c0-.665.078-1.291.195-1.878.9-.059 1.918-.118 3.072-.118v3.992a46.712 46.712 0 0 1-3.091-.137A10.904 10.904 0 0 1 6.146 10zm4.558-7.396c.529.529 1.879 2.094 2.642 4.324a38.63 38.63 0 0 0-2.759-.098V2.585c.04 0 .078.02.117.02zm-1.291-.02V6.83c-1.017.02-1.937.04-2.759.098.744-2.23 2.113-3.795 2.622-4.324.059 0 .098-.02.137-.02zm1.174 9.412V8.004c1.135.02 2.172.059 3.072.118a9.537 9.537 0 0 1 .02 3.756c-.9.059-1.938.098-3.092.118zm4.285-3.757c1.154.118 1.976.235 2.406.313.098.47.157.959.157 1.448 0 .49-.059.978-.137 1.448-.43.078-1.252.195-2.407.313a10.43 10.43 0 0 0 .137-1.78c0-.588-.058-1.194-.156-1.742zm2.054-.939a54.132 54.132 0 0 0-2.328-.274c-.47-1.683-1.291-3.033-1.976-3.991A7.457 7.457 0 0 1 16.926 7.3zM7.378 3.035c-.704.939-1.506 2.289-1.976 3.972-.978.078-1.76.195-2.328.273a7.536 7.536 0 0 1 4.304-4.245zM3.074 12.7c.548.078 1.33.176 2.309.274a12.112 12.112 0 0 0 1.956 3.972A7.526 7.526 0 0 1 3.074 12.7zm9.587 4.246c.704-.94 1.487-2.27 1.956-3.953.979-.078 1.761-.195 2.31-.273a7.55 7.55 0 0 1-4.266 4.226z" fill="#0092D2" fill-rule="nonzero"/>
</svg>
