<?xml version="1.0" encoding="UTF-8"?>
<svg width="48px" height="48px" viewBox="0 0 48 48" version="1.1" xmlns="http://www.w3.org/2000/svg" xmlns:xlink="http://www.w3.org/1999/xlink">
    <title>Icons/48/icon-retourneren-blue-48</title>
    <g id="Icons/48/icon-retourneren-blue-48" stroke="none" stroke-width="1" fill="none" fill-rule="evenodd">
        <path d="M20.9458871,30.338854 L21.0225089,30.3555455 C21.1483125,30.3997854 21.2325117,30.5181765 21.2325117,30.6508963 L21.2325117,45.6865593 C21.2325117,45.7911589 21.180011,45.8889524 21.0924798,45.9471628 C21.0398891,45.9821787 20.9788334,46 20.9172373,46 C20.8766236,46 20.8356496,45.9921192 20.796927,45.9761785 L5.66411554,39.7576932 C5.54623659,39.7092442 5.46933161,39.5949727 5.46933161,39.4681635 L5.46933161,31.2947931 C5.46933161,31.1936861 5.51832026,31.0988479 5.60098862,31.039921 C5.68356692,30.9811732 5.78964897,30.9655908 5.88600533,30.998099 C5.88600533,30.998099 16.6029939,34.6229965 16.8958452,34.7233871 C17.1411486,34.8072101 17.3000016,34.5962197 17.3000016,34.5962197 L20.6722941,30.4538764 C20.7564033,30.3504409 20.8967954,30.3113056 21.0225089,30.3555455 Z M22.9774624,30.3510678 C23.103356,30.3068279 23.243568,30.3460527 23.3277673,30.4493986 L26.7000598,34.5916524 C26.7000598,34.5916524 26.8587326,34.8028219 27.1041262,34.7188198 C27.3969774,34.6184292 38.114056,30.9935318 38.114056,30.9935318 C38.2103223,30.9610235 38.3164944,30.976606 38.3990727,31.0353537 C38.4817411,31.0943701 38.5307298,31.1892083 38.5307298,31.2900467 L38.5307298,39.4633276 C38.5307298,39.5901368 38.4539148,39.7044979 38.3359458,39.7529468 L23.2030443,45.9714321 C23.1643217,45.9874624 23.1233477,45.9953432 23.082734,45.9953432 C23.0213181,45.9953432 22.9601723,45.9775218 22.9075815,45.942506 C22.8199603,45.8842956 22.7674596,45.7865021 22.7674596,45.6819024 L22.7674596,30.6465081 C22.7674596,30.5136988 22.8517489,30.3953077 22.9774624,30.3510678 Z M22.0332034,19.0004663 L22.0944059,19.0097965 L38.8823854,23.7235871 C38.9491145,23.742304 39.0077388,23.7822453 39.049163,23.8373213 L41.9371522,27.6755376 C41.9976676,27.7559575 42.0156782,27.860199 41.9859608,27.9562014 C41.9560633,28.0520247 41.8817698,28.1279669 41.7861339,28.1602961 L27.5903205,32.9516409 C27.5570911,32.9628352 27.5228711,32.968298 27.4890113,32.968298 C27.3958068,32.968298 27.3052138,32.9270134 27.2442481,32.8523249 L23.2703137,27.9813662 L22.0922446,28.3037624 L22.0749545,28.3074341 C22.0202025,28.3231957 21.9623887,28.3231957 21.9077267,28.3081506 L20.7296576,27.9857544 L16.7558133,32.8567131 C16.6948476,32.9314016 16.6042546,32.9727757 16.5110501,32.9727757 C16.4771903,32.9727757 16.4429703,32.9672234 16.4097408,32.9560291 L2.21392747,28.1646843 C2.11829153,28.1323551 2.04399808,28.0564129 2.01410059,27.9605896 C1.98429315,27.8647662 2.00230369,27.7604353 2.06281909,27.6800153 L4.95089837,23.8417095 C4.9923226,23.7865439 5.05103694,23.7466922 5.11758587,23.7279753 L21.9056555,19.0141847 C21.9624787,18.9986022 22.0383931,18.9940349 22.0944059,19.0097965 Z M22.0089459,20.3417406 L9.96971396,23.7024523 L22.0089459,26.9734303 L34.0304375,23.6981536 L22.0089459,20.3417406 Z M30.3333333,1 L30.3333333,6.33333333 C39.6666667,7.66666667 43.6666667,14.3333333 45,21 C41.6666667,16.3333333 37,14.2 30.3333333,14.2 L30.3333333,19.6666667 L21,10.3333333 L30.3333333,1 Z" id="icon" fill="#0092D2" fill-rule="nonzero"></path>
    </g>
</svg>