<?xml version="1.0" encoding="UTF-8"?>
<svg width="24px" height="24px" viewBox="0 0 24 24" version="1.1" xmlns="http://www.w3.org/2000/svg" xmlns:xlink="http://www.w3.org/1999/xlink">
    <title>Icons/24/icon-cancel-round-darkgrey-24</title>
    <g id="Icons/24/icon-cancel-round-darkgrey-24" stroke="none" stroke-width="1" fill="none" fill-rule="evenodd">
        <circle id="circle" fill="#003247" fill-rule="nonzero" cx="12" cy="12" r="12"></circle>
        <path d="M13.8469903,12 L16.6174758,14.7704855 C17.1275081,15.2805178 17.1275081,16.1074435 16.6174758,16.6174758 C16.1074435,17.1275081 15.2805178,17.1275081 14.7704855,16.6174758 L12,13.8469903 L12,13.8469903 L9.22951453,16.6174758 C8.71948224,17.1275081 7.89255651,17.1275081 7.38252422,16.6174758 C6.87249193,16.1074435 6.87249193,15.2805178 7.38252422,14.7704855 L10.1530097,12 L10.1530097,12 L7.38252422,9.22951453 C6.87249193,8.71948224 6.87249193,7.89255651 7.38252422,7.38252422 C7.89255651,6.87249193 8.71948224,6.87249193 9.22951453,7.38252422 L12,10.1530097 L12,10.1530097 L14.7704855,7.38252422 C15.2805178,6.87249193 16.1074435,6.87249193 16.6174758,7.38252422 C17.1275081,7.89255651 17.1275081,8.71948224 16.6174758,9.22951453 L13.8469903,12 L13.8469903,12 Z" id="Combined-Shape" fill="#FFFFFF" fill-rule="nonzero"></path>
    </g>
</svg>