<?xml version="1.0" encoding="UTF-8"?>
<svg width="24px" height="24px" viewBox="0 0 24 24" version="1.1" xmlns="http://www.w3.org/2000/svg" xmlns:xlink="http://www.w3.org/1999/xlink">
    <title>Icons/24/icon-user-blue-24</title>
    <g id="Icons/24/icon-user-blue-24" stroke="none" stroke-width="1" fill="none" fill-rule="evenodd">
        <path d="M14.6500294,14.2391031 L14.7777778,14.2433259 C18.928879,14.9203715 22,17.2793694 22,19.8084741 C22,20.586613 21.1947737,22 21.1947737,22 L2.80039388,21.9937182 C2.80039388,21.9937182 2,20.5841911 2,19.8084741 C2,17.2708106 5.04949169,14.9127489 9.22222222,14.2433259 C10.1033853,14.1019627 11.0370733,16.4693852 12,16.4693852 C12.419274,16.4693852 12.825242,16.0337471 13.222642,15.5473479 L13.486358,15.2197852 C13.9239425,14.6753925 14.3522492,14.1739221 14.7777778,14.2433259 Z M12,2 C15.0682486,2 17.5555556,4.49160169 17.5555556,7.56514815 C17.5555556,10.6386946 15.0682486,14.2433259 12,14.2433259 C8.93175139,14.2433259 6.44444444,10.6386946 6.44444444,7.56514815 C6.44444444,4.49160169 8.93175139,2 12,2 Z" id="icon" fill="#0092D2" fill-rule="nonzero"></path>
    </g>
</svg>