<svg xmlns="http://www.w3.org/2000/svg" width="185" height="34" viewBox="0 0 185 34">
  <g fill="none" fill-rule="nonzero">
    <path fill="#0092D2" d="M12 1v20h20v12H0V1z"/>
    <path fill="#003247" d="M20 1h12v12H20z"/>
    <path fill="#00202E" d="M40 1h5.996v26h11.599v6H40V1zm31.606 20.761a5.357 5.357 0 0 1-.976.547c-.329.139-.78.268-1.353.387l-1.146.239c-1.075.212-1.845.47-2.311.775-.788.517-1.183 1.318-1.183 2.405 0 .967.242 1.666.726 2.097.484.43 1.072.646 1.764.646 1.1 0 2.111-.358 3.037-1.074.925-.715 1.406-2.02 1.442-3.915v-2.107zm-3.1-2.643c.944-.132 1.619-.298 2.025-.497.729-.344 1.093-.88 1.093-1.61 0-.887-.278-1.5-.833-1.838-.555-.338-1.37-.507-2.445-.507-1.207 0-2.06.331-2.562.994-.358.49-.597 1.153-.717 1.987h-4.926c.108-1.894.585-3.451 1.433-4.67 1.35-1.908 3.667-2.862 6.95-2.862 2.138 0 4.037.47 5.697 1.411 1.66.94 2.49 2.716 2.49 5.326V32.772h-4.926V29.75a10.766 10.766 0 0 1-2.436 2.166c-1.099.702-2.341 1.054-3.726 1.054-1.768 0-3.228-.56-4.38-1.68-1.153-1.12-1.729-2.706-1.729-4.76 0-2.663.926-4.59 2.777-5.783 1.015-.65 2.508-1.113 4.478-1.391l1.738-.239zm15.556 6.26c.107 1.007.34 1.723.699 2.147.633.755 1.803 1.133 3.51 1.133 1.004 0 1.801-.166 2.392-.497.591-.331.887-.828.887-1.49 0-.637-.239-1.12-.717-1.451-.477-.332-2.25-.901-5.32-1.71-2.21-.61-3.768-1.371-4.676-2.285-.907-.901-1.361-2.2-1.361-3.896 0-2 .708-3.72 2.123-5.157 1.415-1.438 3.406-2.156 5.974-2.156 2.436 0 4.422.54 5.956 1.62 1.535 1.08 2.416 2.944 2.643 5.594h-5.106c-.071-.729-.257-1.305-.555-1.729-.561-.769-1.517-1.153-2.866-1.153-1.111 0-1.902.192-2.374.577-.472.384-.708.834-.708 1.351 0 .65.251 1.12.753 1.411.501.305 2.275.828 5.32 1.57 2.03.53 3.553 1.332 4.568 2.405 1.004 1.086 1.505 2.445 1.505 4.074 0 2.147-.72 3.899-2.159 5.257-1.439 1.358-3.663 2.037-6.672 2.037-3.07 0-5.336-.719-6.799-2.156-1.463-1.438-2.194-3.27-2.194-5.495h5.177zm26.035-3.617a5.357 5.357 0 0 1-.977.547c-.328.139-.779.268-1.352.387l-1.147.239c-1.075.212-1.845.47-2.31.775-.789.517-1.183 1.318-1.183 2.405 0 .967.242 1.666.726 2.097.483.43 1.071.646 1.764.646 1.099 0 2.111-.358 3.037-1.074.925-.715 1.406-2.02 1.442-3.915v-2.107zm-3.1-2.643c.944-.132 1.619-.298 2.025-.497.728-.344 1.093-.88 1.093-1.61 0-.887-.278-1.5-.833-1.838-.556-.338-1.37-.507-2.446-.507-1.206 0-2.06.331-2.561.994-.359.49-.598 1.153-.717 1.987h-4.926c.107-1.894.585-3.451 1.433-4.67 1.35-1.908 3.666-2.862 6.95-2.862 2.138 0 4.037.47 5.697 1.411 1.66.94 2.49 2.716 2.49 5.326V32.772h-4.926V29.75a10.766 10.766 0 0 1-2.437 2.166c-1.098.702-2.34 1.054-3.726 1.054-1.767 0-3.227-.56-4.38-1.68-1.152-1.12-1.728-2.706-1.728-4.76 0-2.663.925-4.59 2.776-5.783 1.016-.65 2.508-1.113 4.479-1.391l1.738-.239zm16.666-8.486v13.057c0 1.232.132 2.16.394 2.783.466 1.1 1.38 1.65 2.741 1.65 1.744 0 2.938-.783 3.583-2.346.334-.848.502-1.968.502-3.359V10.632h5.177v22.14h-4.962v-3.538c-.048.066-.168.265-.359.596a3.904 3.904 0 0 1-.68.875c-.8.795-1.574 1.338-2.32 1.63-.747.291-1.622.437-2.625.437-2.89 0-4.836-1.153-5.84-3.458-.56-1.272-.842-3.147-.842-5.625V10.632h5.231zM145 32.772h-6V2h6v30.772zm8.815-16.814c-.65.822-1.06 1.934-1.227 3.339h7.936c-.084-1.497-.493-2.633-1.227-3.408-.735-.776-1.645-1.163-2.732-1.163-1.182 0-2.1.41-2.75 1.232zm7.139-4.889c1.301.676 2.376 1.742 3.224 3.2.765 1.285 1.26 2.776 1.487 4.471.131.994.185 2.425.161 4.293h-13.363c.071 2.173.686 3.697 1.845 4.571.704.544 1.552.815 2.543.815 1.051 0 1.905-.331 2.562-.993.358-.358.675-.855.95-1.491h5.213c-.132 1.285-.735 2.59-1.81 3.915-1.672 2.107-4.012 3.16-7.022 3.16-2.484 0-4.676-.887-6.574-2.663-1.9-1.775-2.849-4.664-2.849-8.665 0-3.75.857-6.625 2.57-8.626 1.715-2 3.939-3 6.674-3 1.624 0 3.087.337 4.389 1.013zm18.815 7.334a5.375 5.375 0 0 0-.734-2.187c-.574-.874-1.463-1.311-2.67-1.311-1.72 0-2.896.947-3.529 2.842-.334 1.007-.501 2.345-.501 4.014 0 1.59.167 2.869.501 3.836.61 1.802 1.756 2.703 3.44 2.703 1.194 0 2.042-.358 2.544-1.073.501-.716.806-1.643.913-2.783h5.213c-.12 1.723-.68 3.353-1.684 4.89-1.6 2.477-3.97 3.716-7.111 3.716-3.141 0-5.452-1.033-6.933-3.1-1.481-2.067-2.221-4.75-2.221-8.05 0-3.723.818-6.618 2.454-8.685 1.636-2.067 3.893-3.1 6.771-3.1 2.448 0 4.452.61 6.01 1.828 1.559 1.22 2.481 3.372 2.768 6.46h-5.23z"/>
  </g>
</svg>
