<?xml version="1.0" encoding="UTF-8" standalone="no"?>
<svg width="31px" height="30px" viewBox="0 0 31 30" version="1.1" xmlns="http://www.w3.org/2000/svg" xmlns:xlink="http://www.w3.org/1999/xlink">
    <!-- Generator: Sketch 44.1 (41455) - http://www.bohemiancoding.com/sketch -->
    <title>icon-onderhoud-blue-32</title>
    <desc>Created with Sketch.</desc>
    <defs></defs>
    <g id="Page-1" stroke="none" stroke-width="1" fill="none" fill-rule="evenodd">
        <g id="Home---not-logged-in---empty-cart" transform="translate(-533.000000, -557.000000)">
            <g id="content" transform="translate(222.000000, 234.000000)">
                <g id="categories" transform="translate(0.000000, 200.000000)">
                    <g id="Group-13-Copy-17" transform="translate(291.000000, 100.000000)">
                        <g id="icon-onderhoud-blue-32" transform="translate(20.000000, 22.000000)">
                            <rect id="frame" x="0" y="0" width="32" height="32"></rect>
                            <path d="M7,28.1908724 L6,28.1908724 L6,30 L5,30 L5,28.1908724 L4,28.1908724 L4,30 L3,30 L3,28.1908724 L2,28.1908724 L2,30 L1,30 L1,28.1767589 C0.433730828,28.0889004 0,27.6014656 0,27.0139204 C0,26.3642429 0.530314462,25.8369684 1.18373764,25.8369684 L4.38988716,25.8369684 L5.64102821,22.9981294 C5.05568929,22.7086454 4.81714682,22.0024126 5.1077428,21.4204291 C5.39301584,20.8490305 6.08196661,20.6130247 6.66024953,20.8778927 C9.87743895,13.7128839 11.5219326,10.0509313 11.5937306,9.89203511 C11.2007606,9.55307294 11.0628591,8.98573592 11.2989876,8.49673928 C11.5457621,7.9853421 12.1145751,7.73407439 12.6460656,7.86293909 C13.8268323,5.84676647 15.8244244,3.16393131 18.5955774,1.94636292 C21.5904181,0.631130599 24.9788478,0.690578214 27.4368751,2.10113596 C29.3864987,3.21925574 30.60106,5.12121018 30.8555094,7.4568368 C31.2668002,11.2260371 30.802218,13.795331 29.4338482,15.3106914 C28.8395965,15.9691691 28.1394427,16.3686866 27.4102604,16.6134926 L27.4102604,13.9789048 C27.5014314,13.9059799 27.5907455,13.8288703 27.6718896,13.7388373 C28.5519095,12.7625672 28.8319215,10.734702 28.501651,7.71050458 C28.3253128,6.0957572 27.5695156,4.89468153 26.2537564,4.13964759 C24.4645641,3.11279159 21.8342836,3.09746813 19.5532134,4.09964661 C17.4313985,5.03179259 15.8101886,7.1732606 14.7975281,8.86985615 C15.3337845,9.17232512 15.5539442,9.83732608 15.2829069,10.3981399 C15.0792731,10.8201195 14.6560985,11.0660947 14.2151601,11.0660947 C14.0488489,11.0660947 13.8813616,11.02954 13.7209922,10.9559997 L8.77797937,21.9347802 C9.27870813,22.2549112 9.47169605,22.900527 9.20059692,23.4430634 C8.9934351,23.8567351 8.57434555,24.0962487 8.13934905,24.0962487 C8.02985719,24.0962487 7.92036532,24.075079 7.81204946,24.0438782 L6.99113902,25.8369684 L7.81626236,25.8369684 C8.46968554,25.8369684 9,26.3642429 9,27.0139204 C9,27.6014656 8.56626917,28.0889004 8,28.1767589 L8,30 L7,30 L7,28.1908724 Z M24.34384,20.7342547 C20.8606561,20.7342547 18.0260635,23.5917381 18.0260635,27.1048538 C18.0260635,28.5721666 18.5256058,29.921389 19.3560977,31 L12.4543684,31 C11.6508727,31 11,29.9770602 11,29.1668367 L12.3736843,20.3456296 C14.5145146,9.67438912 22.6190541,9.0019634 23.4225499,9.0019634 L26.2709067,9.0019634 C27.0744025,9.0019634 26.9980529,8.92497453 26.9980529,9.73519806 L26.9980529,11.4481238 L26.9980529,14.4236977 L26.9980529,21.3318386 C26.1901465,20.952032 25.2928107,20.7342547 24.34384,20.7342547 Z M26.7804253,24.1315892 C27.0082552,24.3523902 27.2079425,24.6005254 27.3798624,24.8697399 C27.7703565,25.4869818 28,26.2161879 28,26.9996873 C28,27.8280974 27.746404,28.5984613 27.3134459,29.2379083 C27.0808005,29.5812444 26.7943089,29.8844861 26.4689806,30.1405026 C26.1233271,30.4125944 25.7316448,30.6285165 25.3081926,30.7756963 C24.8973734,30.9186227 24.4584115,31 23.9996873,31 C23.5410256,31 23.1020013,30.9186227 22.691182,30.7756963 C22.2874922,30.6351468 21.9137586,30.4323602 21.58005,30.1775946 C20.6219512,29.4466372 20,28.2958451 20,27.0003127 C20,24.7944299 21.7940588,23 23.9996248,23 C24.8045654,23 25.5539087,23.24163 26.1824265,23.6531455 C26.3970607,23.793695 26.5968105,23.9539477 26.7804253,24.1315892 Z M24,25 C22.8950659,25 22,25.8955959 22,26.9999688 C22,28.1043417 22.8955959,29 23.9999688,29 C25.1043417,29 26,28.1043417 26,26.9999688 C26,25.8955959 25.1043729,25 24,25 Z" id="icon" fill="#0092D2" fill-rule="nonzero"></path>
                        </g>
                    </g>
                </g>
            </g>
        </g>
    </g>
</svg>