<?xml version="1.0" encoding="UTF-8" standalone="no"?>
<svg width="32px" height="30px" viewBox="0 0 32 30" version="1.1" xmlns="http://www.w3.org/2000/svg" xmlns:xlink="http://www.w3.org/1999/xlink">
    <!-- Generator: Sketch 44.1 (41455) - http://www.bohemiancoding.com/sketch -->
    <title>icon-gereedschappen-blue-32</title>
    <desc>Created with Sketch.</desc>
    <defs></defs>
    <g id="Page-1" stroke="none" stroke-width="1" fill="none" fill-rule="evenodd">
        <g id="Home---not-logged-in---empty-cart" transform="translate(-242.000000, -457.000000)">
            <g id="content" transform="translate(222.000000, 234.000000)">
                <g id="categories" transform="translate(0.000000, 200.000000)">
                    <g id="Group-13">
                        <g id="icon-gereedschappen-blue-32" transform="translate(20.000000, 22.000000)">
                            <rect id="frame" x="0" y="0" width="32" height="32"></rect>
                            <path d="M16.2878758,25.1893399 C16.576582,25.1893399 16.8113975,25.4269529 16.8114764,25.7194979 L16.8114764,29.1119506 C16.8114764,30.1530246 15.9741573,31 14.9462874,31 L1.87655102,31 C0.848286591,31 0.0109675227,30.1530246 0.0109675227,29.1119506 L0.0109675227,25.7194979 C0.0109675227,25.4269529 0.246098584,25.1893399 0.53583055,25.1893399 L16.2878758,25.1893399 Z M20.0966834,2.26583222 C20.3113786,2.33793052 20.4562445,2.54145054 20.4545087,2.77044049 L20.4545087,6.92946662 C20.4545087,7.09338447 20.3799453,7.2482002 20.2523591,7.3486428 L16.4427625,10.6668414 C16.3548645,10.7361452 16.2464517,10.7758272 16.1341727,10.7787814 L13.437898,10.7787814 L13.437898,11.0504076 L14.1699604,11.2238268 C14.4452531,11.2890586 14.6204967,11.5633196 14.5653435,11.843968 L13.6908611,16.2949803 C13.6574062,16.4633693 13.545285,16.6062884 13.3897671,16.6759116 L12.172451,17.223715 L11.7685463,20.9271565 L16.3272484,21.8056699 C16.5742938,21.8542145 16.7530092,22.0721063 16.7530092,22.3283227 L16.7530092,23.7441003 C16.7530092,24.0370445 16.5189828,24.2750568 16.2290141,24.2750568 L0.545930139,24.2750568 C0.256198173,24.2750568 0.021382724,24.0379228 0.021382724,23.7441003 L0.021382724,22.5935615 C0.021382724,22.3781448 0.149757971,22.1840463 0.346068737,22.1023668 L2.4236647,21.2352709 L4.67563639,10.7344685 L0.524863027,10.7344685 C0.234736546,10.7344685 0,10.497095 0,10.2036717 L0,1.53111618 C0,1.2383316 0.234736546,1.00007984 0.524863027,1 L16.2298032,1 C16.2862188,1 16.3415299,1.00862305 16.3942371,1.0270668 L20.0966834,2.26583222 Z M23.7789305,2.23924447 C24.0693726,2.23924447 24.3041091,2.47709701 24.3041091,2.77004128 L24.3041091,6.66382869 C24.3041091,6.95693264 24.0697671,7.1946255 23.7789305,7.1946255 L21.768481,7.1946255 C21.4785123,7.1946255 21.2433024,6.95733186 21.2433024,6.66382869 L21.2433024,2.77004128 C21.2433024,2.47749623 21.4777233,2.23924447 21.768481,2.23924447 L23.7789305,2.23924447 Z M31.4745808,4.20705706 C31.7645494,4.20705706 31.9989704,4.44363212 31.9999961,4.73577795 C32.0011007,5.02936096 31.7670743,5.27224362 31.4779736,5.27352111 L25.878067,5.27519781 L25.878067,5.66076005 C25.878067,5.9533051 25.6435671,6.19155686 25.3536774,6.19155686 C25.0637876,6.19155686 24.8289722,5.95370432 24.8289722,5.66076005 L24.8289722,3.83195427 C24.8289722,3.53869063 25.0629197,3.30107762 25.3536774,3.30107762 C25.6432515,3.30107762 25.878067,3.53829141 25.878067,3.83195427 L25.878067,4.21312514 L31.4721348,4.20705706 C31.4733183,4.20705706 31.4741862,4.20705706 31.4745808,4.20705706 Z" id="icon" fill="#0092D2" fill-rule="nonzero"></path>
                        </g>
                    </g>
                </g>
            </g>
        </g>
    </g>
</svg>