<?xml version="1.0" encoding="UTF-8" standalone="no"?>
<svg width="32px" height="30px" viewBox="0 0 32 30" version="1.1" xmlns="http://www.w3.org/2000/svg" xmlns:xlink="http://www.w3.org/1999/xlink">
    <!-- Generator: Sketch 44.1 (41455) - http://www.bohemiancoding.com/sketch -->
    <title>icon-installatiemateriaal-blue-32</title>
    <desc>Created with Sketch.</desc>
    <defs></defs>
    <g id="Page-1" stroke="none" stroke-width="1" fill="none" fill-rule="evenodd">
        <g id="Home---not-logged-in---empty-cart" transform="translate(-1115.000000, -557.000000)">
            <g id="content" transform="translate(222.000000, 234.000000)">
                <g id="categories" transform="translate(0.000000, 200.000000)">
                    <g id="Group-13-Copy-19" transform="translate(873.000000, 100.000000)">
                        <g id="icon-installatiemateriaal-blue-32" transform="translate(20.000000, 22.000000)">
                            <rect id="frame" x="0" y="0" width="32" height="32"></rect>
                            <path d="M12.1260175,6 C12.5700603,7.72522721 14.1361606,9 16,9 C17.8638394,9 19.4299397,7.72522721 19.8739825,6 L25,6 C25.5522847,6 26,5.55228475 26,5 C26,4.44771525 25.5522847,4 25,4 L19.8739825,4 C19.4299397,2.27477279 17.8638394,1 16,1 C14.1361606,1 12.5700603,2.27477279 12.1260175,4 L7,4 C6.44771525,4 6,4.44771525 6,5 C6,5.55228475 6.44771525,6 7,6 L12.1260175,6 Z M21.1973068,22 L23.2283821,22 C25.6392376,22 26,24.0568605 26,24.8156047 L26,31 L32,31 L32,24.8156047 C32,19.6806512 27.7953278,16 23.3264761,16 L21.1973068,16 C20.1598786,14.2065959 18.2208471,13 16,13 C13.7791529,13 11.8401214,14.2065959 10.8026932,16 L4,16 L4,22 L10.8026932,22 C11.8401214,23.7934041 13.7791529,25 16,25 C18.2208471,25 20.1598786,23.7934041 21.1973068,22 Z M0,17 L4,17 L4,21 L0,21 L0,17 Z M15,10 L17,10 C17.5522847,10 18,10.4477153 18,11 C18,11.5522847 17.5522847,12 17,12 L15,12 C14.4477153,12 14,11.5522847 14,11 C14,10.4477153 14.4477153,10 15,10 Z" id="icon" fill="#0092D2"></path>
                        </g>
                    </g>
                </g>
            </g>
        </g>
    </g>
</svg>