<?xml version="1.0" encoding="UTF-8" standalone="no"?>
<svg width="28px" height="32px" viewBox="0 0 28 32" version="1.1" xmlns="http://www.w3.org/2000/svg" xmlns:xlink="http://www.w3.org/1999/xlink">
    <!-- Generator: Sketch 44.1 (41455) - http://www.bohemiancoding.com/sketch -->
    <title>icon-magazijn-blue-32</title>
    <desc>Created with Sketch.</desc>
    <defs></defs>
    <g id="Page-1" stroke="none" stroke-width="1" fill="none" fill-rule="evenodd">
        <g id="Home---not-logged-in---empty-cart" transform="translate(-535.000000, -656.000000)">
            <g id="content" transform="translate(222.000000, 234.000000)">
                <g id="categories" transform="translate(0.000000, 200.000000)">
                    <g id="Group-13-Copy-21" transform="translate(291.000000, 200.000000)">
                        <g id="icon-magazijn-blue-32" transform="translate(20.000000, 22.000000)">
                            <rect id="frame" x="0" y="0" width="32" height="32"></rect>
                            <path d="M2.17338931,5.51907474 C1.57951331,3.70924594 2.56065678,1.75081594 4.36084988,1.1535876 C6.16104298,0.556359266 8.10871702,1.5431821 8.70259301,3.3530109 L15.4576464,23.9383559 C14.8281483,23.7712449 14.1586597,23.7406567 13.4903152,23.8635324 L6.95055483,3.93429154 C6.67535415,3.09559931 5.77304746,2.63855388 4.93896892,2.91525957 C4.10483836,3.19196526 3.65027881,4.09920645 3.92547949,4.93784639 C4.08507716,5.42427742 3.82230524,5.94882607 3.33846792,6.10929654 C2.8546826,6.26976702 2.33303898,6.00550577 2.17338931,5.51907474 Z M28.7881863,21.6675601 L17.7204595,25.3392961 C18.1132394,25.7876618 18.4245822,26.320681 18.6222982,26.9229813 C18.6293186,26.9444715 18.6332709,26.9661708 18.6399793,26.9877133 L29.3663054,23.4292321 C29.8500907,23.2687616 30.1129146,22.744213 29.9533169,22.2578342 C29.7936673,21.7712986 29.2719196,21.5070374 28.7881863,21.6675601 Z M17.7463051,27.2138046 C18.3734111,29.1247575 17.3409925,31.1849914 15.4404854,31.8155269 C13.5399262,32.4460624 11.490898,31.40805 10.863792,29.4970971 C10.236686,27.5860919 11.2691046,25.5259104 13.1696117,24.8953749 C15.0701709,24.2647871 17.1192511,25.3028517 17.7463051,27.2138046 Z M16.0256768,27.7845754 C15.7121498,26.8291251 14.6876877,26.3101713 13.7373301,26.6254129 C12.7870766,26.9406022 12.2708933,27.9707714 12.5844203,28.9262217 C12.8979473,29.881672 13.9224614,30.4006782 14.872767,30.0854889 C15.8230206,29.770195 16.3392038,28.7400258 16.0256768,27.7845754 Z M25.9911448,7.70427582 L29.7486845,19.1550913 C29.8285094,19.3982807 29.6970974,19.660555 29.4551787,19.7408164 L17.628622,23.6642123 C17.3867553,23.7444737 17.1259075,23.6123431 17.0461347,23.3691014 L13.2885949,11.9182859 C13.2087701,11.6750443 13.3401821,11.4128222 13.5821007,11.3325609 L25.4086055,7.40911263 C25.6505242,7.32895582 25.91132,7.46103416 25.9911448,7.70427582 Z M20.912777,7.52456352 L18.5104394,0.203679775 C18.4594243,0.0481766161 18.2926502,-0.0363200567 18.1379929,0.0150263125 L16.078096,0.698372238 L16.0680074,0.716986604 L16.0507424,0.707470271 L14.9639285,1.06804518 L15.8589027,3.79531124 L14.6330324,4.20200377 L13.7381102,1.47473771 L12.6509323,1.83541719 L12.6427158,1.85340411 L12.6234746,1.84451522 L10.5769426,2.523469 C10.4222332,2.57476308 10.3383001,2.74244923 10.3893152,2.89795239 L12.7917048,10.2188884 C12.8427199,10.3743916 13.009494,10.4588883 13.1641514,10.4075419 L20.7253057,7.89909921 C20.879807,7.84775284 20.9638441,7.68006668 20.912777,7.52456352 Z" id="icon" fill="#0092D2" fill-rule="nonzero"></path>
                        </g>
                    </g>
                </g>
            </g>
        </g>
    </g>
</svg>