<?xml version="1.0" encoding="UTF-8" standalone="no"?>
<svg width="31px" height="32px" viewBox="0 0 31 32" version="1.1" xmlns="http://www.w3.org/2000/svg" xmlns:xlink="http://www.w3.org/1999/xlink">
    <!-- Generator: Sketch 44.1 (41455) - http://www.bohemiancoding.com/sketch -->
    <title>icon-automaterialen-blue-32</title>
    <desc>Created with Sketch.</desc>
    <defs></defs>
    <g id="Page-1" stroke="none" stroke-width="1" fill="none" fill-rule="evenodd">
        <g id="Home---not-logged-in---empty-cart" transform="translate(-1115.000000, -656.000000)">
            <g id="content" transform="translate(222.000000, 234.000000)">
                <g id="categories" transform="translate(0.000000, 200.000000)">
                    <g id="Group-13-Copy-23" transform="translate(873.000000, 200.000000)">
                        <g id="icon-automaterialen-blue-32" transform="translate(20.000000, 22.000000)">
                            <rect id="frame" x="0" y="0" width="32" height="32"></rect>
                            <path d="M30.9132252,13.0016849 C31.1084685,14.7500833 30.9132252,15.0014977 30.9132252,15.0014977 L26.0458718,15.4848495 C26.9526852,16.0996114 28.0002179,16.9495487 28.0002179,18.0012169 L28.0002179,22.7592422 C28.0002179,24.1132649 26.389256,25.4684477 25.0004358,26.000468 L25.0004358,29.0001872 C25.0004358,30.0812402 23.6259013,31 22.0006537,31 C20.3754061,31 19.0008716,30.080467 19.0008716,29.0001872 L19.0008716,26.000468 L10.0015253,26.000468 L10.0015253,22.0044189 L18.0009443,22.0044189 L18.0009443,21.0009361 L10,21.0009361 L10.0007627,20.0010297 L18.0009443,20.0010297 L18.0009443,19.0011233 L10,19.0011233 L10,14.0015913 L23.5005448,14.0015913 L22.5006174,10.0019658 C22.1086055,8.31543024 21.1167996,7.00224659 19.5510402,7.00224659 L12.0013801,7.00224659 C12.084511,6.72773026 12.459397,5.29241584 12.5013438,5.00243381 L19.3935833,5.00243381 C22.0758901,4.90886627 24.0703268,7.52977225 24.5004721,10.0019658 L25.5003995,15.0014977 C25.6086985,15.0502147 25.6950441,15.2714227 25.7964791,15.3301924 L26.0458718,13.0016849 C26.0458718,13.0016849 30.7172193,11.25174 30.9132252,13.0016849 Z M25,22 L25,19 L20,19 L20,22 L25,22 Z M11.4179839,5.01754556 C11.4156957,7.17908067 10.2441511,9.06762047 8.50590223,10.0590652 L8.51734309,29.2685002 C8.51200402,30.7796414 7.30689951,32 5.82416333,32 C5.07821889,31.9969066 4.40549599,31.6960704 3.91811511,31.2011214 C3.42997151,30.705399 3.13022083,30.022524 3.13022083,29.2677268 L3.13022083,10.2052298 L3.13022083,10.1804824 C1.27374971,9.22229204 0,7.27033689 0,5.01754556 C0.00152544875,2.86915752 1.15552743,0.997631592 2.86784365,0 L2.86784365,4.62931993 L5.70822922,6.29590604 L8.54632662,4.63473343 L8.54632662,0 C10.2616937,0.997631592 11.4134075,2.86915752 11.4179839,5.01754556 Z M6.41756289,30.4772584 C6.81951864,30.0696989 6.81875591,29.4100247 6.41527472,29.0009184 C6.01713259,28.5972256 5.3665287,28.5972256 4.96304751,29.0040118 C4.56185449,29.4123447 4.56109176,30.0712456 4.95923389,30.4764851 C5.3634778,30.8855914 6.01636987,30.8855914 6.41756289,30.4772584 Z" id="icon" fill="#0092D2" fill-rule="nonzero"></path>
                        </g>
                    </g>
                </g>
            </g>
        </g>
    </g>
</svg>