<?xml version="1.0" encoding="UTF-8" standalone="no"?>
<svg width="32px" height="32px" viewBox="0 0 32 32" version="1.1" xmlns="http://www.w3.org/2000/svg" xmlns:xlink="http://www.w3.org/1999/xlink">
    <!-- Generator: Sketch 44.1 (41455) - http://www.bohemiancoding.com/sketch -->
    <title>icon-lastechniek-blue-32</title>
    <desc>Created with Sketch.</desc>
    <defs></defs>
    <g id="Page-1" stroke="none" stroke-width="1" fill="none" fill-rule="evenodd">
        <g id="Home---not-logged-in---empty-cart" transform="translate(-1115.000000, -456.000000)">
            <g id="content" transform="translate(222.000000, 234.000000)">
                <g id="categories" transform="translate(0.000000, 200.000000)">
                    <g id="Group-13-Copy-15" transform="translate(873.000000, 0.000000)">
                        <g id="icon-lastechniek-blue-32" transform="translate(20.000000, 22.000000)">
                            <rect id="frame" x="0" y="0" width="32" height="32"></rect>
                            <path d="M20,32 L18,25 L7,32 L10.1826675,26.9986653 C10.1217784,26.9995551 10.0608892,27 10,27 C6.66666667,27 3.33333333,25.6666667 0,23 L0,4 C3.33333333,1.33333333 6.66666667,5.5109106e-16 10,0 C13.3333333,0 16.6666667,1.33333333 20,4 L20,12.3333333 L21,15 L31,9 L23,18 L32,22 L23.5,22 L30,30 L20,21 L26,21 L21,19 L24,15 L20,18 L18,13 L18,18.5 L13,18.5 L17,21 L13,26 L19,22.5 L20,32 Z M4,7 L4,11 L16,11 L16,7 L4,7 Z" id="icon" fill="#0092D2"></path>
                        </g>
                    </g>
                </g>
            </g>
        </g>
    </g>
</svg>