<?xml version="1.0" encoding="UTF-8" standalone="no"?>
<svg width="32px" height="28px" viewBox="0 0 32 28" version="1.1" xmlns="http://www.w3.org/2000/svg" xmlns:xlink="http://www.w3.org/1999/xlink">
    <!-- Generator: Sketch 44.1 (41455) - http://www.bohemiancoding.com/sketch -->
    <title>icon-persluchttechniek-blue-32</title>
    <desc>Created with Sketch.</desc>
    <defs></defs>
    <g id="Page-1" stroke="none" stroke-width="1" fill="none" fill-rule="evenodd">
        <g id="Home---not-logged-in---empty-cart" transform="translate(-824.000000, -658.000000)">
            <g id="content" transform="translate(222.000000, 234.000000)">
                <g id="categories" transform="translate(0.000000, 200.000000)">
                    <g id="Group-13-Copy-22" transform="translate(582.000000, 200.000000)">
                        <g id="icon-persluchttechniek-blue-32" transform="translate(20.000000, 22.000000)">
                            <rect id="frame" x="0" y="0" width="32" height="32"></rect>
                            <path d="M18.0708889,26 L10.4841681,26 L6.56542116,26 C6.37488053,26 6.18637178,25.9911724 6,25.9749766 C2.65858516,25.6836656 0,22.5300234 0,19.0594925 L0,18.2033926 C0,14.5391883 2.95919833,11.9895736 6.56538722,11.989538 L13,11.9895736 C13.0221309,6.27057683 13.0221309,3.27370475 13,2.99895736 C13.0150989,2.51767481 13.5232105,2 14,2 L23.5,2 C24.2044643,2 25,2.49947868 25,3.49843604 C25,4.49739339 24.2044643,4.99687207 23.5,4.99687207 L20,4.99687207 C19.4784393,4.99687207 19.1976872,4.45356872 19,3.99791472 L15,3.99791472 L15,11.9895736 L17,11.9895736 L25.5061203,11.9895736 C27.4606067,11.9895736 29.1785344,12.4416706 30.3751674,13.8242945 C31.3864445,14.9927066 32,16.5251506 32,18.2033926 L32,19.0594925 C32,20.2702212 31.6806804,20.9224111 31.1230943,21.6050617 C29.9284212,19.4549549 27.6341221,18 25,18 C21.1340068,18 18,21.1340068 18,25 C18,25.3395213 18.024172,25.673397 18.0708889,26 Z M4.88686079,27 C5.09768996,27.0330219 5.31103162,27.0497344 5.52637351,27.0497344 L8,27.0497344 L7.16319626,29.5934122 C7.08221132,29.8396966 6.89275046,30 6.68277505,30 L4.19990359,30 C4.05730179,30 3.96065651,29.8154805 4.01566285,29.6482006 L4.88686079,27 Z M17,7.70205869 C17,7.31432313 17.3944313,7 17.8810607,7 L29.1189393,7 C29.6055687,7 30,7.31432313 30,7.70205869 L30,12 C29.4168598,11.5883709 28.7595196,11.2575415 28.0400008,11.0150343 C27.1544237,10.716595 26.2142407,10.5652513 25.2454985,10.5652513 L17,10.5652513 L17,7.70205869 Z M29.8498229,23.7801785 C29.893167,23.9528203 29.9273861,24.1289806 29.952132,24.3082342 C29.9778833,24.493945 29.9937362,24.682749 29.9984147,24.8744142 C29.9993814,24.916173 30,24.9580092 30,25 C30,27.7614179 27.7614179,30 25,30 C22.6959185,30 20.756144,28.4413134 20.1767017,26.3209707 C20.1335122,26.1628285 20.0978626,26.001593 20.0702167,25.837651 C20.0434214,25.6789675 20.0240887,25.5177707 20.0126823,25.3543313 C20.0044465,25.2372906 20,25.1191673 20,25 C20,22.2385821 22.2385821,20 25,20 C27.3406205,20 29.3053343,21.6084105 29.8498229,23.7801785 Z M24.9999531,27 C25.4682188,27 25.8985018,26.8386401 26.2392675,26.5691911 C26.4613491,26.3935287 26.6451666,26.171864 26.7765117,25.9183587 C26.8761577,25.7259086 26.9456988,25.5155451 26.9783827,25.2929894 C26.9924972,25.1972802 27,25.0995545 27,25 C27,23.8954748 26.1044524,23 24.9999531,23 C23.8954538,23 23,23.8954279 23,25 C23,25.1475264 23.0165061,25.2912544 23.0467984,25.4297304 C23.092659,25.6393904 23.1713442,25.8365768 23.2773206,26.0158968 C23.4123233,26.2443142 23.5910764,26.4437984 23.8025603,26.6020633 C24.136386,26.8520047 24.5509132,27 24.9999531,27 Z" id="icon" fill="#0092D2" fill-rule="nonzero"></path>
                        </g>
                    </g>
                </g>
            </g>
        </g>
    </g>
</svg>