<?xml version="1.0" encoding="UTF-8"?>
<svg width="32px" height="32px" viewBox="0 0 32 32" version="1.1" xmlns="http://www.w3.org/2000/svg" xmlns:xlink="http://www.w3.org/1999/xlink">
    <title>Icons/32/icon-home-round-32</title>
    <g id="Icons/32/icon-home-round-32" stroke="none" stroke-width="1" fill="none" fill-rule="evenodd">
        <circle id="Oval" fill="#0092D2" fill-rule="nonzero" cx="16" cy="16" r="16"></circle>
        <path d="M22.0115284,19 L23.014823,19 C24.2660618,19 24.1032164,16.9405478 23.7299623,16.5652174 L16.675774,8.28161794 C16.4965547,8.10140168 16.2532943,8 16,8 C15.746701,8 15.5034406,8.10140168 15.3242212,8.28161794 L8.2702017,16.5652174 C7.8967086,16.9405478 7.73393349,19 8.9851723,19 L9.99334094,19 L9.99334094,23 C9.99334094,23.530797 10.4671275,24 10.9949882,24 L12.99993,24 C13.5277907,24 13.9967031,23.530797 13.9967031,23 L13.9967031,21 L18.0081595,21 L18.0081595,23 C18.0081595,23.530797 18.4770787,24 19.0049394,24 L21.0098812,24 C21.5377419,24 22.0115284,23.530797 22.0115284,23 L22.0115284,19 Z" id="icon" fill="#FFFFFF" fill-rule="nonzero"></path>
    </g>
</svg>