<?xml version="1.0" encoding="UTF-8"?>
<svg width="16px" height="16px" viewBox="0 0 16 16" version="1.1" xmlns="http://www.w3.org/2000/svg" xmlns:xlink="http://www.w3.org/1999/xlink">
    <title>Icons/16/icon-cancel-blue-16</title>
    <g id="Icons/16/icon-cancel-blue-16" stroke="none" stroke-width="1" fill="none" fill-rule="evenodd">
        <path d="M10.2163884,8 L13.5409709,11.3245826 C14.1530097,11.9366213 14.1530097,12.9289322 13.5409709,13.5409709 C12.9289322,14.1530097 11.9366213,14.1530097 11.3245826,13.5409709 L8,10.2163884 L8,10.2163884 L4.67541744,13.5409709 C4.06337869,14.1530097 3.07106781,14.1530097 2.45902906,13.5409709 C1.84699031,12.9289322 1.84699031,11.9366213 2.45902906,11.3245826 L5.78361162,8 L5.78361162,8 L2.45902906,4.67541744 C1.84699031,4.06337869 1.84699031,3.07106781 2.45902906,2.45902906 C3.07106781,1.84699031 4.06337869,1.84699031 4.67541744,2.45902906 L8,5.78361162 L8,5.78361162 L11.3245826,2.45902906 C11.9366213,1.84699031 12.9289322,1.84699031 13.5409709,2.45902906 C14.1530097,3.07106781 14.1530097,4.06337869 13.5409709,4.67541744 L10.2163884,8 L10.2163884,8 Z" id="Combined-Shape" fill="#0092D2" fill-rule="nonzero"></path>
    </g>
</svg>