<?xml version="1.0" encoding="UTF-8" standalone="no"?>
<svg width="32px" height="32px" viewBox="0 0 32 32" version="1.1" xmlns="http://www.w3.org/2000/svg" xmlns:xlink="http://www.w3.org/1999/xlink">
    <!-- Generator: Sketch 44.1 (41455) - http://www.bohemiancoding.com/sketch -->
    <title>icon-aandrijftechniek-blue-32</title>
    <desc>Created with Sketch.</desc>
    <defs></defs>
    <g id="Page-1" stroke="none" stroke-width="1" fill="none" fill-rule="evenodd">
        <g id="Home---not-logged-in---empty-cart" transform="translate(-242.000000, -656.000000)">
            <g id="content" transform="translate(222.000000, 234.000000)">
                <g id="categories" transform="translate(0.000000, 200.000000)">
                    <g id="Group-13-Copy-20" transform="translate(0.000000, 200.000000)">
                        <g id="icon-aandrijftechniek-blue-32" transform="translate(20.000000, 22.000000)">
                            <rect id="frame" x="0" y="0" width="32" height="32"></rect>
                            <path d="M16,32 C7.163444,32 0,24.836556 0,16 C0,7.163444 7.163444,0 16,0 C24.836556,0 32,7.163444 32,16 C32,24.836556 24.836556,32 16,32 Z M16,30 C23.7319865,30 30,23.7319865 30,16 C30,8.2680135 23.7319865,2 16,2 C8.2680135,2 2,8.2680135 2,16 C2,23.7319865 8.2680135,30 16,30 Z M16,24 C11.581722,24 8,20.418278 8,16 C8,11.581722 11.581722,8 16,8 C20.418278,8 24,11.581722 24,16 C24,20.418278 20.418278,24 16,24 Z M16,22 C19.3137085,22 22,19.3137085 22,16 C22,12.6862915 19.3137085,10 16,10 C12.6862915,10 10,12.6862915 10,16 C10,19.3137085 12.6862915,22 16,22 Z M16,7 C14.8954305,7 14,6.1045695 14,5 C14,3.8954305 14.8954305,3 16,3 C17.1045695,3 18,3.8954305 18,5 C18,6.1045695 17.1045695,7 16,7 Z M20.1730118,8.0258789 C19.1977348,7.50731493 18.8274957,6.29631757 19.3460597,5.32104059 C19.8646237,4.34576361 21.075621,3.97552456 22.050898,4.49408853 C23.026175,5.0126525 23.396414,6.22364986 22.8778501,7.19892684 C22.3592861,8.17420382 21.1482887,8.54444287 20.1730118,8.0258789 Z M23.4145184,10.8984407 C22.7809634,9.9936303 23.0008593,8.74653873 23.9056697,8.1129837 C24.81048,7.47942866 26.0575716,7.69932455 26.6911266,8.60413491 C27.3246817,9.50894528 27.1047858,10.7560368 26.1999754,11.3895919 C25.295165,12.0231469 24.0480735,11.803251 23.4145184,10.8984407 Z M24.9347053,14.9178352 C24.8000922,13.821499 25.5797227,12.8236174 26.6760589,12.6890042 C27.7723951,12.5543911 28.7702768,13.3340216 28.9048899,14.4303578 C29.0395031,15.526694 28.2598725,16.5245757 27.1635363,16.6591888 C26.0672001,16.793802 25.0693185,16.0141714 24.9347053,14.9178352 Z M24.4180178,19.1839179 C24.8138601,18.1527134 25.9707101,17.6376506 27.0019146,18.0334929 C28.033119,18.4293352 28.5481818,19.5861852 28.1523395,20.6173897 C27.7564972,21.6485941 26.5996472,22.1636569 25.5684428,21.7678146 C24.5372383,21.3719723 24.0221755,20.2151223 24.4180178,19.1839179 Z M21.956088,22.7473286 C22.7769431,22.0082273 24.0415376,22.0745019 24.7806389,22.895357 C25.5197402,23.7162121 25.4534656,24.9808066 24.6326105,25.7199079 C23.8117553,26.4590091 22.5471608,26.3927346 21.8080596,25.5718794 C21.0689583,24.7510243 21.1352329,23.4864298 21.956088,22.7473286 Z M18.1486285,24.7397685 C19.2203876,24.472549 20.3058442,25.1247571 20.5730638,26.1965162 C20.8402833,27.2682753 20.1880752,28.3537319 19.1163161,28.6209514 C18.044557,28.888171 16.9591004,28.2359628 16.6918809,27.1642038 C16.4246613,26.0924447 17.0768695,25.0069881 18.1486285,24.7397685 Z M13.8513715,24.7397685 C14.9231305,25.0069881 15.5753387,26.0924447 15.3081191,27.1642038 C15.0408996,28.2359628 13.955443,28.888171 12.8836839,28.6209514 C11.8119248,28.3537319 11.1597167,27.2682753 11.4269362,26.1965162 C11.6941558,25.1247571 12.7796124,24.472549 13.8513715,24.7397685 Z M10.043912,22.7473286 C10.8647671,23.4864298 10.9310417,24.7510243 10.1919404,25.5718794 C9.45283915,26.3927346 8.18824465,26.4590091 7.36738955,25.7199079 C6.54653444,24.9808066 6.48025985,23.7162121 7.21936111,22.895357 C7.95846237,22.0745019 9.22305686,22.0082273 10.043912,22.7473286 Z M7.58198218,19.1839179 C7.97782449,20.2151223 7.46276169,21.3719723 6.43155723,21.7678146 C5.40035277,22.1636569 4.24350278,21.6485941 3.84766048,20.6173897 C3.45181817,19.5861852 3.96688097,18.4293352 4.99808543,18.0334929 C6.0292899,17.6376506 7.18613988,18.1527134 7.58198218,19.1839179 Z M7.06529469,14.9178352 C6.93068153,16.0141714 5.9327999,16.793802 4.8364637,16.6591888 C3.74012749,16.5245757 2.96049692,15.526694 3.09511008,14.4303578 C3.22972324,13.3340216 4.22760487,12.5543911 5.32394107,12.6890042 C6.42027728,12.8236174 7.19990785,13.821499 7.06529469,14.9178352 Z M8.58548156,10.8984407 C7.95192653,11.803251 6.70483497,12.0231469 5.8000246,11.3895919 C4.89521424,10.7560368 4.67531835,9.50894528 5.30887339,8.60413491 C5.94242842,7.69932455 7.18951998,7.47942866 8.09433035,8.1129837 C8.99914071,8.74653873 9.2190366,9.9936303 8.58548156,10.8984407 Z M11.8269882,8.0258789 C10.8517113,8.54444287 9.64071389,8.17420382 9.12214992,7.19892684 C8.60358595,6.22364986 8.973825,5.0126525 9.94910198,4.49408853 C10.924379,3.97552456 12.1353763,4.34576361 12.6539403,5.32104059 C13.1725043,6.29631757 12.8022652,7.50731493 11.8269882,8.0258789 Z" id="icon" fill="#0092D2"></path>
                        </g>
                    </g>
                </g>
            </g>
        </g>
    </g>
</svg>