<svg width="32" height="32" viewBox="0 0 32 32" xmlns="http://www.w3.org/2000/svg">
  <g fill="none" fill-rule="nonzero">
    <path fill="#EA231C" d="M4 2h18l6 5.6V30H4z"/>
    <path fill="#FFF" d="M21 4l5 5h-5zM9.636 25c-.779 0-1.237-.549-1.42-.869-.184-.32-.596-1.325.641-2.56.504-.502 1.42-1.462 3.803-2.285.32-.64.642-1.326.962-2.057.367-.823.688-1.509.917-2.149-.962-1.554-1.146-2.697-1.1-4.023C13.485 9.55 14.493 9 15.134 9c.459 0 1.65.411 1.696 2.377.046.777-.092 1.692-.78 3.566a30.829 30.829 0 0 0 1.971 2.423c.275.32.55.594.78.823 2.565-.092 3.848.457 4.306.731 1.054.64.963 1.691.78 2.149-.138.365-.642 1.005-1.696 1.005-.23 0-.504-.045-.78-.091-.824-.229-1.42-.549-3.207-2.423-.824.046-1.695.183-2.611.366-.733.137-1.42.32-2.016.503-1.97 3.885-2.933 4.297-3.254 4.434-.183.091-.458.137-.687.137zm2.016-3.794c-1.008.503-1.512 1.005-1.833 1.325-.55.549-.458.869-.458.869l.092.137s.046.092.137.092c.046 0 .092 0 .183-.046.138-.046.688-.32 1.88-2.377zm8.523-1.692c.916.869 1.237 1.006 1.65 1.097.137.046.274.046.412.046.32 0 .412-.137.412-.137.046-.183 0-.366-.229-.503-.137-.091-.779-.411-2.245-.503zm-5.636-.823l-.046.092c.32-.092.596-.137.916-.183.596-.091 1.146-.229 1.696-.274l-.046-.046c-.596-.64-1.1-1.234-1.558-1.829l-.046.046v-.046a19.57 19.57 0 0 0-.55 1.326c-.137.32-.275.64-.366.914zm.595-8.32c-.183.046-.274.32-.274.686 0 .686 0 1.372.366 2.24.32-1.006.32-1.508.32-1.874-.045-.686-.274-.96-.412-1.052z"/>
  </g>
</svg>
