<?xml version="1.0" encoding="UTF-8" standalone="no"?>
<svg width="32px" height="28px" viewBox="0 0 32 28" version="1.1" xmlns="http://www.w3.org/2000/svg" xmlns:xlink="http://www.w3.org/1999/xlink">
    <!-- Generator: Sketch 44.1 (41455) - http://www.bohemiancoding.com/sketch -->
    <title>icon-bevestigingsmateriaal-blue-32</title>
    <desc>Created with Sketch.</desc>
    <defs></defs>
    <g id="Page-1" stroke="none" stroke-width="1" fill="none" fill-rule="evenodd">
        <g id="Home---not-logged-in---empty-cart" transform="translate(-824.000000, -558.000000)">
            <g id="content" transform="translate(222.000000, 234.000000)">
                <g id="categories" transform="translate(0.000000, 200.000000)">
                    <g id="Group-13-Copy-18" transform="translate(582.000000, 100.000000)">
                        <g id="icon-bevestigingsmateriaal-blue-32" transform="translate(20.000000, 22.000000)">
                            <rect id="frame" x="0" y="0" width="32" height="32"></rect>
                            <path d="M19.2501791,15 L27.7498209,15 L32,22.5 L27.7498209,30 L19.2501791,30 L15,22.5 L19.2501791,15 Z M23.5258899,28.0793464 C26.6798348,28.0793464 29.2452482,25.5049673 29.2452482,22.34 C29.2452482,19.1750327 26.6792486,16.6006536 23.5258899,16.6006536 C20.3725312,16.6006536 17.8065316,19.1750327 17.8065316,22.34 C17.8065316,25.5049673 20.3725312,28.0793464 23.5258899,28.0793464 Z M23.5258899,17.2262092 C26.3360037,17.2262092 28.6224575,19.5205882 28.6224575,22.3405882 C28.6224575,25.1605882 26.3360689,27.4549673 23.5258899,27.4549673 C20.715711,27.4549673 18.4293224,25.1605882 18.4293224,22.3405882 C18.4293224,19.5205882 20.715711,17.2262092 23.5258899,17.2262092 Z M23.5258899,26.1555556 C25.6260014,26.1555556 27.3282224,24.447451 27.3275711,22.3405882 C27.3275711,20.2336601 25.6253501,18.5255556 23.5258899,18.5255556 C21.4263646,18.5255556 19.7241436,20.2337255 19.7241436,22.3405882 C19.7241436,24.447451 21.4263646,26.1555556 23.5258899,26.1555556 Z M10.0703102,25.3730818 L8.43825157,26.9993669 L0,18.5909668 L1.63205868,16.9646818 L4.04298169,19.3670758 L6.16465797,17.2529053 L4.46959987,16.5396147 L4.87759321,16.1330647 L6.57269398,16.8463128 L7.79671665,15.6266202 L6.10165855,14.9133297 L6.50965188,14.5067797 L8.20475265,15.2200277 L9.42877533,14.0003352 L7.73371723,13.2870446 L8.14171056,12.8804946 L9.83681133,13.5937427 L11.060834,12.3740502 L9.3657759,11.6607596 L9.77376924,11.2542096 L11.46887,11.9674576 L12.6928927,10.7477651 L10.9978346,10.0344746 L11.4058279,9.62792456 L13.100886,10.3412151 L14.3249514,9.1214801 L12.6298933,8.40818953 L13.0378866,8.00163953 L14.7329447,8.7149301 L15.95701,7.49519506 L14.2619519,6.78190449 L14.6699453,6.37535449 L16.3650034,7.08864506 L21.3835945,2.08780795 L24.9882842,1.99936686 L25,5.69141993 L21.4503044,9.22855799 L23.1453625,9.94184856 L22.7373265,10.3484411 L21.0422684,9.63515051 L19.8182457,10.854843 L21.5133038,11.5681336 L21.1052678,11.9747261 L19.4102097,11.2614355 L18.186187,12.4811281 L19.8812451,13.1944186 L19.4732091,13.6010111 L17.778151,12.8877206 L16.5541283,14.1074131 L18.2491864,14.8207037 L17.8411504,15.2272962 L16.1460923,14.5140056 L14.922027,15.7337407 L16.6171278,16.4469887 L16.2090918,16.8535812 L14.5140337,16.1402907 L13.2899683,17.3600257 L14.9850691,18.0732737 L14.5770331,18.4798663 L12.881975,17.7665757 L11.6579097,18.9863107 L13.3530104,19.6995588 L12.9449744,20.1061513 L11.2499163,19.3928607 L7.65938723,22.9706878 L10.0703102,25.3730818 Z" id="icon" fill="#0092D2" fill-rule="nonzero"></path>
                        </g>
                    </g>
                </g>
            </g>
        </g>
    </g>
</svg>