<?xml version="1.0" encoding="UTF-8" standalone="no"?>
<svg width="32px" height="32px" viewBox="0 0 32 32" version="1.1" xmlns="http://www.w3.org/2000/svg" xmlns:xlink="http://www.w3.org/1999/xlink">
    <!-- Generator: Sketch 44.1 (41455) - http://www.bohemiancoding.com/sketch -->
    <title>icon-lijmen-blue-32</title>
    <desc>Created with Sketch.</desc>
    <defs></defs>
    <g id="Page-1" stroke="none" stroke-width="1" fill="none" fill-rule="evenodd">
        <g id="Home---not-logged-in---empty-cart" transform="translate(-824.000000, -456.000000)">
            <g id="content" transform="translate(222.000000, 234.000000)">
                <g id="categories" transform="translate(0.000000, 200.000000)">
                    <g id="Group-13-Copy-14" transform="translate(582.000000, 0.000000)">
                        <g id="icon-lijmen-blue-32" transform="translate(20.000000, 22.000000)">
                            <rect id="frame" x="0" y="0" width="32" height="32"></rect>
                            <path d="M7.36949197,16.7004589 C6.78832611,16.9592106 6.34589859,16.563565 6.07414048,15.9535881 L0.0911263623,5.0604666 C-0.180459184,4.45047547 0.070507561,3.74623601 0.651723192,3.48746214 L8.253514,0.102926811 C8.83467986,-0.155824902 9.5259613,0.128898638 9.79754685,0.738889763 L13.8892959,12.4740567 C14.1609047,13.0841001 14.1588351,13.6776486 13.5776692,13.9364003 L13.0150179,14.1869088 L13.3257503,14.8848252 C13.5973125,15.4947641 13.3464421,16.1990859 12.7652762,16.4578376 L12.3421803,16.646212 C14.0014451,21.568393 14.7855876,24.049737 14.6946078,24.0902438 L14.1678905,24.3247535 C14.0768775,24.365275 12.7575899,22.1221931 10.2100278,17.5955075 L9.78698161,17.7838598 C9.20571621,18.0426558 8.51433848,17.7578499 8.24277619,17.1479111 L7.9320438,16.4499947 L7.36949197,16.7004589 Z M14.875,32 C13.7013971,32 12.75,30.9722378 12.75,29.7044923 C12.75,28.4365146 14.875,25.6 14.875,25.6 C14.875,25.6 17,28.4366887 17,29.7044923 C17,30.9722378 16.0486029,32 14.875,32 Z" id="glue" fill="#0092D2" fill-rule="nonzero" transform="translate(8.500000, 16.000000) scale(-1, 1) translate(-8.500000, -16.000000) "></path>
                            <path d="M25.893126,15.0004208 C29.2608461,15.0004208 32,18.5891565 32,23.0000248 C32,27.4108187 29.2608461,30.9995545 25.893126,30.9995545 C22.525622,30.9995545 19.7856757,27.4108187 19.7856757,23.0000248 C19.7856757,18.5891565 22.525622,15.0004208 25.893126,15.0004208 Z M25.893126,28.8770984 C28.0874169,28.8770984 29.9410604,26.1865305 29.9410604,23.0008415 C29.9410604,19.8155239 28.0874169,17.1239906 25.893126,17.1239906 C24.9350056,17.1239906 24.0002241,17.6355215 23.2617345,18.565247 C22.3613131,19.6977582 21.8451915,21.314178 21.8451915,23.0004703 C21.8451915,24.6861685 22.3613131,26.3030339 23.2617345,27.4356936 C24.0002241,28.3649735 24.9349335,28.8770984 25.893126,28.8770984 Z M20.1070901,31 C16.7394421,31 14,27.4116355 14,23.0004703 C14,18.5896021 16.7398022,15.0008663 20.1070901,15.0008663 L23.0343961,15.0008663 C20.6631904,16.3916304 19.0112413,19.4533906 19.0112413,23.0004703 C19.0112413,26.5479212 20.6631183,29.6093101 23.0343961,31 L20.1070901,31 Z M16.1253547,9.12394112 C16.1253547,9.09706143 16.1156301,9.07367164 16.1105878,9.04835127 L21.8621915,7 C21.9988395,9.32242016 22.946515,12.6834953 24.3619774,14.2021236 L20.1070901,14.2021236 C19.9191542,14.2021236 19.7333072,14.2145982 19.5495492,14.2336813 C19.5030154,14.2134101 19.4523757,14.2021236 19.3988547,14.2021236 C17.6242321,14.2021236 16.1253547,11.8768076 16.1253547,9.12394112 Z M25.893126,17.9218422 C27.6676765,17.9218422 29.1665539,20.2473068 29.1659056,23.0018811 C29.1659056,25.7545991 27.6669561,28.0804349 25.8924056,28.0804349 C25.2508014,28.0804349 24.6097013,27.7577301 24.0614528,27.1659314 C24.0827027,27.135636 24.1012874,27.1017023 24.1220331,27.0700704 C24.1659016,27.004579 24.2075371,26.9376025 24.2487404,26.869735 C24.301253,26.7832299 24.3526851,26.6967991 24.4011637,26.6067298 C24.4400619,26.5357437 24.4767271,26.4636437 24.5130321,26.3908013 C24.5590616,26.2983559 24.6022819,26.2040542 24.6437733,26.108119 C24.6771249,26.0325291 24.7096121,25.9573105 24.7399383,25.8805326 C24.7791967,25.7814788 24.8151415,25.6801973 24.8502939,25.5780247 C24.8774506,25.500133 24.9047514,25.4225383 24.9288827,25.3425676 C24.961442,25.2357913 24.9901834,25.127827 25.0181325,25.0191945 C25.0385901,24.9400405 25.0605603,24.8617032 25.0787128,24.7812869 C25.1043568,24.6659716 25.1247424,24.5490969 25.1460644,24.4320737 C25.1595347,24.3549988 25.1754541,24.2790377 25.1868354,24.201443 C25.2065006,24.0705344 25.2193226,23.9371013 25.2322887,23.8046334 C25.2390599,23.738251 25.2482082,23.6729081 25.2533946,23.6065999 C25.2685937,23.4062645 25.2764454,23.2043698 25.2764454,23.0012871 C25.2764454,22.7982786 25.2678013,22.5962354 25.2533946,22.3960485 C25.2484243,22.329369 25.2390599,22.2641746 25.2322887,22.198015 C25.2189625,22.0649531 25.2064286,21.9324852 25.1868354,21.8015766 C25.1754541,21.7232394 25.1596067,21.6467585 25.1460644,21.5691638 C25.1247424,21.4522892 25.1039967,21.3356372 25.0787128,21.2210644 C25.0605603,21.1400541 25.0385901,21.0611971 25.0181325,20.9821173 C24.9901834,20.8734105 24.9620903,20.7658175 24.9297471,20.6597095 C24.9050396,20.5802585 24.8778828,20.5018471 24.8509422,20.4235098 C24.8157898,20.3218571 24.779917,20.2211696 24.7405866,20.1222642 C24.7103324,20.0445953 24.6777732,19.9693767 24.6444936,19.8941581 C24.6029302,19.7982971 24.559926,19.7039954 24.5137524,19.6119956 C24.4774474,19.5383364 24.4403501,19.4662364 24.401812,19.3952503 C24.3526851,19.3056265 24.3019733,19.2182304 24.2493887,19.1324679 C24.2082575,19.0647489 24.1664779,18.9976239 24.1227534,18.931984 C24.1019357,18.9007976 24.083423,18.8664926 24.0621731,18.8359002 C24.6104217,18.2441758 25.2515217,17.9218422 25.893126,17.9218422 Z" id="tape" fill="#0092D2" fill-rule="nonzero"></path>
                        </g>
                    </g>
                </g>
            </g>
        </g>
    </g>
</svg>