<?xml version="1.0" encoding="UTF-8"?>
<svg width="20px" height="20px" viewBox="0 0 20 20" version="1.1" xmlns="http://www.w3.org/2000/svg" xmlns:xlink="http://www.w3.org/1999/xlink">
    <title>Icons/20/icon-cancel-round-darkgrey-20</title>
    <g id="Icons/20/icon-cancel-round-darkgrey-20" stroke="none" stroke-width="1" fill="none" fill-rule="evenodd">
        <circle id="circle" fill="#003247" fill-rule="nonzero" cx="10" cy="10" r="10"></circle>
        <path d="M11.8469903,10 L14.6174758,12.7704855 C15.1275081,13.2805178 15.1275081,14.1074435 14.6174758,14.6174758 C14.1074435,15.1275081 13.2805178,15.1275081 12.7704855,14.6174758 L10,11.8469903 L10,11.8469903 L7.22951453,14.6174758 C6.71948224,15.1275081 5.89255651,15.1275081 5.38252422,14.6174758 C4.87249193,14.1074435 4.87249193,13.2805178 5.38252422,12.7704855 L8.15300969,10 L8.15300969,10 L5.38252422,7.22951453 C4.87249193,6.71948224 4.87249193,5.89255651 5.38252422,5.38252422 C5.89255651,4.87249193 6.71948224,4.87249193 7.22951453,5.38252422 L10,8.15300969 L10,8.15300969 L12.7704855,5.38252422 C13.2805178,4.87249193 14.1074435,4.87249193 14.6174758,5.38252422 C15.1275081,5.89255651 15.1275081,6.71948224 14.6174758,7.22951453 L11.8469903,10 L11.8469903,10 Z" id="Combined-Shape" fill="#FFFFFF" fill-rule="nonzero"></path>
    </g>
</svg>