<?xml version="1.0" encoding="UTF-8"?>
<svg width="32px" height="32px" viewBox="0 0 32 32" version="1.1" xmlns="http://www.w3.org/2000/svg" xmlns:xlink="http://www.w3.org/1999/xlink">
    <title>Icons/32/icon-chat-white-32</title>
    <g id="Icons/32/icon-chat-white-32" stroke="none" stroke-width="1" fill="none" fill-rule="evenodd">
        <path d="M20,2 C26.0751322,2 31,6.92486775 31,13 C31,18.7613066 26.5708021,23.4881187 20.9317481,23.9610945 C19.0630158,27.5217588 15.8127219,29.8704522 12.1096276,29.9948077 L11.9990081,29.9960866 L11.999483,27.9972298 C15.3346342,27.904509 18.2120967,25.4924668 19.6403531,22.0004873 L20,22 C24.9705627,22 29,17.9705627 29,13 C29,8.1181973 25.1131863,4.14420858 20.2653623,4.00383711 L20,4 L12,4 C7.02943725,4 3,8.02943725 3,13 C3,17.8818027 6.88681368,21.8557914 11.7346377,21.9961629 L12,22 L12,24 C5.92486775,24 1,19.0751322 1,13 C1,6.92486775 5.92486775,2 12,2 L20,2 Z M22,14 C22.5522847,14 23,14.4477153 23,15 C23,15.5522847 22.5522847,16 22,16 L10,16 C9.44771525,16 9,15.5522847 9,15 C9,14.4477153 9.44771525,14 10,14 L22,14 Z M22,9 C22.5522847,9 23,9.44771525 23,10 C23,10.5522847 22.5522847,11 22,11 L10,11 C9.44771525,11 9,10.5522847 9,10 C9,9.44771525 9.44771525,9 10,9 L22,9 Z" id="Shape" fill="#FFFFFF" fill-rule="nonzero"></path>
    </g>
</svg>